<?xml version="1.0" encoding="UTF-8"?>
<svg height="128px" viewBox="0 0 128 128" width="128px" xmlns="http://www.w3.org/2000/svg" xmlns:xlink="http://www.w3.org/1999/xlink">
    <linearGradient id="a" gradientUnits="userSpaceOnUse" x1="11.99984" x2="115.99984" y1="66.000885" y2="66.000885">
        <stop offset="0" stop-color="#c01c28"/>
        <stop offset="0.0358087" stop-color="#961720"/>
        <stop offset="0.521329" stop-color="#a81922"/>
        <stop offset="0.745833" stop-color="#c01c28"/>
        <stop offset="0.895254" stop-color="#e02432"/>
        <stop offset="1" stop-color="#c01c28"/>
    </linearGradient>
    <linearGradient id="b" gradientUnits="userSpaceOnUse">
        <stop offset="0" stop-color="#e8434a"/>
        <stop offset="1" stop-color="#c01720" stop-opacity="0.988235"/>
    </linearGradient>
    <radialGradient id="c" cx="76.991066" cy="111.953583" gradientTransform="matrix(1.570806 0.00000021 -0.00000019 1.436512 -94.789772 -66.420303)" r="11.78418" xlink:href="#b"/>
    <radialGradient id="d" cx="115.50499" cy="115.239014" gradientTransform="matrix(2.112399 0.00000028 -0.00000026 1.931803 -136.487564 -121.869827)" r="11.78418" xlink:href="#b"/>
    <linearGradient id="e" gradientUnits="userSpaceOnUse">
        <stop offset="0" stop-color="#ec666d"/>
        <stop offset="1" stop-color="#e01b24"/>
    </linearGradient>
    <radialGradient id="f" cx="110.567627" cy="186.67276" gradientTransform="matrix(1.962093 0.0453933 -0.0263871 1.140564 -101.047691 -204.681557)" r="11.299807" xlink:href="#e"/>
    <radialGradient id="g" cx="17.692747" cy="185.886307" gradientTransform="matrix(1.665905 0 0 1.134906 -11.781696 -198.62759)" r="11.30078" xlink:href="#e"/>
    <linearGradient id="h" gradientUnits="userSpaceOnUse">
        <stop offset="0" stop-color="#ffffff"/>
        <stop offset="1" stop-color="#bebebe"/>
    </linearGradient>
    <radialGradient id="i" cx="36" cy="35.999997" r="8" xlink:href="#h"/>
    <radialGradient id="j" cx="36" cy="85.999997" r="8" xlink:href="#h"/>
    <radialGradient id="k" cx="92" cy="35.999997" r="8" xlink:href="#h"/>
    <radialGradient id="l" cx="92" cy="85.999997" r="8" xlink:href="#h"/>
    <radialGradient id="m" cx="64" cy="61.999997" r="8" xlink:href="#h"/>
    <path d="m 20 16 h 88 c 4.417969 0 8 3.582031 8 8 v 84 c 0 4.417969 -3.582031 8 -8 8 h -88 c -4.417969 0 -8 -3.582031 -8 -8 v -84 c 0 -4.417969 3.582031 -8 8 -8 z m 0 0" fill="url(#a)"/>
    <path d="m 20 12 h 88 c 4.417969 0 8 3.582031 8 8 v 76 c 0 4.417969 -3.582031 8 -8 8 h -88 c -4.417969 0 -8 -3.582031 -8 -8 v -76 c 0 -4.417969 3.582031 -8 8 -8 z m 0 0" fill="#ed333b"/>
    <path d="m 12 77.664062 v 18.335938 c 0 0.078125 0.007812 0.15625 0.011719 0.234375 v 11.765625 c 0 4.433594 3.566406 8 8 8 h 1.324219 c 4.046874 -4.757812 8.910156 -8.816406 14.386718 -12 h -0.164062 c -10.671875 -6.035156 -18.957032 -15.296875 -23.558594 -26.335938 z m 0 0" fill="url(#c)"/>
    <path d="m 116 77.660156 c -4.597656 11.039063 -12.882812 20.300782 -23.554688 26.339844 c 6.527344 1.75 11.644532 7.238281 15.691407 11.992188 c 4.371093 -0.0625 7.875 -3.601563 7.875 -7.992188 v -12 c 0 3.605469 -2.363281 6.636719 -5.625 7.644531 c -0.503907 0.152344 -1.027344 0.261719 -1.566407 0.3125 c 0.539063 -0.050781 1.0625 -0.160156 1.566407 -0.3125 c 3.257812 -1.011719 5.613281 -4.042969 5.613281 -7.644531 z m 0 0" fill="url(#d)"/>
    <path d="m 93.402344 12 c 10.21875 6.046875 18.140625 15.085938 22.597656 25.785156 v -17.785156 c 0 -4.433594 -3.566406 -8 -8 -8 z m 0 0" fill="url(#f)"/>
    <path d="m 20 12 c -4.433594 0 -8 3.566406 -8 8 v 17.785156 c 4.457031 -10.699218 12.382812 -19.738281 22.601562 -25.785156 z m 0 0" fill="url(#g)"/>
    <path d="m 41 34 c 0 2.761719 -2.238281 5 -5 5 s -5 -2.238281 -5 -5 s 2.238281 -5 5 -5 s 5 2.238281 5 5 z m 0 0" fill="url(#i)"/>
    <path d="m 41 84 c 0 2.761719 -2.238281 5 -5 5 s -5 -2.238281 -5 -5 s 2.238281 -5 5 -5 s 5 2.238281 5 5 z m 0 0" fill="url(#j)"/>
    <path d="m 97 34 c 0 2.761719 -2.238281 5 -5 5 s -5 -2.238281 -5 -5 s 2.238281 -5 5 -5 s 5 2.238281 5 5 z m 0 0" fill="url(#k)"/>
    <path d="m 97 84 c 0 2.761719 -2.238281 5 -5 5 s -5 -2.238281 -5 -5 s 2.238281 -5 5 -5 s 5 2.238281 5 5 z m 0 0" fill="url(#l)"/>
    <path d="m 69 60 c 0 2.761719 -2.238281 5 -5 5 s -5 -2.238281 -5 -5 s 2.238281 -5 5 -5 s 5 2.238281 5 5 z m 0 0" fill="url(#m)"/>
</svg>
