<?xml version="1.0" encoding="UTF-8" standalone="no"?>
<!-- Created with Inkscape (http://www.inkscape.org/) -->
<svg id="svg2" xmlns:rdf="http://www.w3.org/1999/02/22-rdf-syntax-ns#" xmlns="http://www.w3.org/2000/svg" height="48" width="48" version="1.0" xmlns:cc="http://creativecommons.org/ns#" xmlns:xlink="http://www.w3.org/1999/xlink" xmlns:dc="http://purl.org/dc/elements/1.1/">
 <metadata id="metadata155">
  <rdf:RDF>
   <cc:Work rdf:about="">
    <dc:format>image/svg+xml</dc:format>
    <dc:type rdf:resource="http://purl.org/dc/dcmitype/StillImage"/>
   </cc:Work>
  </rdf:RDF>
 </metadata>
 <defs id="defs4">
  <linearGradient id="linearGradient4504">
   <stop id="stop4506" stop-color="#fff" offset="0"/>
   <stop id="stop4508" stop-color="#fff" stop-opacity="0" offset="1"/>
  </linearGradient>
  <linearGradient id="linearGradient2361">
   <stop id="stop2363" stop-color="#f4f4f3" offset="0"/>
   <stop id="stop2369" stop-color="#deded9" offset=".67391"/>
   <stop id="stop2365" stop-color="#c2c7b8" offset="1"/>
  </linearGradient>
  <linearGradient id="linearGradient2345">
   <stop id="stop2347" stop-color="#babcb4" offset="0"/>
   <stop id="stop2349" stop-color="#7d8280" offset="1"/>
  </linearGradient>
  <linearGradient id="linearGradient2336">
   <stop id="stop2338" stop-color="#eeeeec" offset="0"/>
   <stop id="stop2340" stop-color="#d3d7cf" offset="1"/>
  </linearGradient>
  <linearGradient id="linearGradient2310">
   <stop id="stop2312" offset="0"/>
   <stop id="stop2314" stop-opacity="0" offset="1"/>
  </linearGradient>
  <radialGradient id="radialGradient2316" xlink:href="#linearGradient2310" gradientUnits="userSpaceOnUse" cy="39.537" cx="14.981" gradientTransform="matrix(1 0 0 .25063 0 29.628)" r="12.324"/>
  <radialGradient id="radialGradient2326" gradientUnits="userSpaceOnUse" cy="37.529" cx="13.683" gradientTransform="matrix(1 0 0 .30435 0 26.107)" r="10.656">
   <stop id="stop2322" offset="0"/>
   <stop id="stop2324" stop-opacity="0" offset="1"/>
  </radialGradient>
  <linearGradient id="linearGradient3565" y2="34.464" xlink:href="#linearGradient2361" gradientUnits="userSpaceOnUse" x2="25.202" y1="10.606" x1="32.289"/>
  <linearGradient id="linearGradient3567" y2="26.811" xlink:href="#linearGradient2345" gradientUnits="userSpaceOnUse" x2="26.625" y1="7.2459" x1="32.176"/>
  <linearGradient id="linearGradient3583" y2="26.811" xlink:href="#linearGradient2345" gradientUnits="userSpaceOnUse" x2="26.625" y1="8.9054" x1="31.775"/>
  <radialGradient id="radialGradient3585" xlink:href="#linearGradient4504" gradientUnits="userSpaceOnUse" cy="41.303" cx="22.925" gradientTransform="matrix(1.1623 -.81652 .60631 .86306 -28.763 23.626)" r="2.2715"/>
  <radialGradient id="radialGradient3587" xlink:href="#linearGradient4504" gradientUnits="userSpaceOnUse" cy="41.303" cx="22.925" gradientTransform="matrix(1.0919 -.52376 .40460 .84347 -18.818 17.723)" r="2.2715"/>
  <radialGradient id="radialGradient3589" xlink:href="#linearGradient4504" gradientUnits="userSpaceOnUse" cy="41.303" cx="22.925" gradientTransform="matrix(.96446 -.51281 .45547 .85661 -17.998 16.93)" r="2.2715"/>
  <radialGradient id="radialGradient3591" gradientUnits="userSpaceOnUse" cy="10.832" cx="15.671" gradientTransform="matrix(1.3635 -.58440 .52335 1.2211 -11.147 6.3905)" r="2.2163">
   <stop id="stop2659" stop-color="#fff" offset="0"/>
   <stop id="stop2661" stop-color="#fff" stop-opacity="0" offset="1"/>
  </radialGradient>
  <linearGradient id="linearGradient3593" y2="23.368" xlink:href="#linearGradient2336" gradientUnits="userSpaceOnUse" x2="33.504" y1="26.64" x1="22.629"/>
  <linearGradient id="linearGradient3595" y2="34.276" xlink:href="#linearGradient2345" gradientUnits="userSpaceOnUse" x2="34.111" y1="32.244" x1="8.9985"/>
  <linearGradient id="linearGradient3603" y2="31.425" gradientUnits="userSpaceOnUse" x2="31.511" y1="22.355" x1="16.739">
   <stop id="stop2355" stop-color="#e6e6e3" offset="0"/>
   <stop id="stop2357" stop-color="#c2c8bd" offset="1"/>
  </linearGradient>
  <linearGradient id="linearGradient3607" y2="11.874" xlink:href="#linearGradient2336" gradientUnits="userSpaceOnUse" x2="30.496" y1="5.3543" x1="24.265"/>
  <linearGradient id="linearGradient4528" y2="30.716" xlink:href="#linearGradient4504" gradientUnits="userSpaceOnUse" x2="36.319" gradientTransform="matrix(-1 0 0 1 61.809 -7)" y1="16.199" x1="40.001"/>
  <linearGradient id="linearGradient4531" y2="43.277" xlink:href="#linearGradient4504" gradientUnits="userSpaceOnUse" x2="24.329" gradientTransform="matrix(-1 0 0 1 61.809 -7)" y1="11.277" x1="26.728"/>
  <radialGradient id="radialGradient4551" xlink:href="#linearGradient4504" gradientUnits="userSpaceOnUse" cy="17.46" cx="33.928" gradientTransform="matrix(1.3679 .60373 -1.0293 2.3321 5.1954 -43.655)" r="1.6736"/>
  <radialGradient id="radialGradient4555" xlink:href="#linearGradient4504" gradientUnits="userSpaceOnUse" cy="17.46" cx="33.928" gradientTransform="matrix(1.2164 .60373 -.91529 2.3321 14.406 -40.01)" r="1.6736"/>
  <radialGradient id="radialGradient4559" xlink:href="#linearGradient4504" gradientUnits="userSpaceOnUse" cy="17.46" cx="33.928" gradientTransform="matrix(1.3679 .60373 -1.0293 2.3321 6.4309 -37.786)" r="1.6736"/>
  <radialGradient id="radialGradient4563" xlink:href="#linearGradient4504" gradientUnits="userSpaceOnUse" cy="17.46" cx="33.928" gradientTransform="matrix(1.3679 .60373 -1.0293 2.3321 8.1607 -32.473)" r="1.6736"/>
  <radialGradient id="radialGradient4567" xlink:href="#linearGradient4504" gradientUnits="userSpaceOnUse" cy="17.46" cx="33.928" gradientTransform="matrix(1.3679 .60373 -1.0293 2.3321 1.2418 -35.439)" r="1.6736"/>
  <radialGradient id="radialGradient4619" gradientUnits="userSpaceOnUse" cy="17.599" cx="33.985" gradientTransform="matrix(1.0235 .57331 -.95218 2.8918 7.2092 -55.499)" r="1.6736">
   <stop id="stop2683" stop-color="#fff" offset="0"/>
   <stop id="stop2685" stop-color="#fff" stop-opacity="0" offset="1"/>
  </radialGradient>
 </defs>
 <g id="layer1">
  <g id="g2527" opacity=".75" transform="matrix(-1 0 0 1.3333 44 -11.333)">
   <g id="g2332" opacity=".45" fill="url(#radialGradient2316)">
    <path id="path2308" opacity=".65" d="m27.305 39.537c0.002 1.706-5.516 3.089-12.324 3.089-6.8083 0-12.327-1.383-12.325-3.089-0.0018-1.707 5.5167-3.09 12.325-3.09 6.808 0 12.326 1.383 12.324 3.09z" transform="matrix(1.2171 0 0 .97125 9.7669 1.6)"/>
    <path id="path2328" opacity=".45" d="m27.305 39.537c0.002 1.706-5.516 3.089-12.324 3.089-6.8083 0-12.327-1.383-12.325-3.089-0.0018-1.707 5.5167-3.09 12.325-3.09 6.808 0 12.326 1.383 12.324 3.09z" transform="matrix(.60855 0 0 .72844 22.383 11.2)"/>
   </g>
   <path id="path2318" opacity=".15" d="m24.34 37.529c0.001 1.791-4.771 3.244-10.657 3.244-5.8855 0-10.657-1.453-10.656-3.244-0.0008-1.791 4.7705-3.244 10.656-3.244 5.886 0 10.658 1.453 10.657 3.244z" transform="matrix(1.5014 0 0 1.0406 -7.5449 -1.6786)" fill="url(#radialGradient2326)"/>
  </g>
 </g>
 <g id="layer2">
  <g id="g2287" transform="matrix(-.34203 .58876 .55707 .32967 26.714 -3.7349)" stroke="url(#linearGradient3595)">
   <path id="path2289" d="m39.037 12.873c1.681 3.292 2.145 3.997 1.728 7.182-0.259 1.982-3.934-3.04-3.934-3.04l2.206-4.142z" fill-rule="evenodd" stroke-width="1.5063px" fill="#c2c8bd"/>
   <path id="path2291" d="m11.739 13.188c-0.605 1.096-0.991 1.518-1.155 4.713-0.114 2.203 4.253-2.452 4.253-2.452l-3.098-2.261z" fill-rule="evenodd" stroke-width="1.5063px" fill="url(#linearGradient3593)"/>
   <path id="rect2293" d="m14.02 15.5l23.069 1.909c1.951 0 3.521 1.57 3.521 3.521l-3.109 18.05c0 1.951-1.57 3.521-3.521 3.521l-18.137-3.255c-1.951 0-3.521-1.571-3.521-3.521l-1.823-16.704c0-1.951 1.57-3.521 3.521-3.521z" stroke-linecap="square" stroke-width="1.5063" fill="url(#linearGradient3603)"/>
   <path id="path2295" d="m17.735 6.5987c-1.624 1.1984-4.251 4.0073-5.169 5.2083-1.392 1.821 0.958 3.674 2.064 3.674 1.842 0 21.231 1.959 23.073 1.959 1.659 0 2.816-1.754 2.114-3.103-0.685-1.317-2.204-5.2831-2.858-6.4017-0.714-1.2193-2.149-1.3776-3.829-1.459-4.515-0.2189-8.351-0.6177-11.682-0.6492-1.821-0.0172-2.9 0.1713-3.713 0.7716z" fill-rule="evenodd" stroke-width="1.5063" fill="url(#linearGradient3607)"/>
  </g>
  <path id="path2451" opacity=".85" d="m31.257 10.507l-6.462 13.409c-0.583 1.034-0.597 1.838 0.353 2.417l10.399 3.894c0.949 0.578 1.875 0.459 2.458-0.574l4.023-10.949c0.583-1.034 0.72-2.085-0.23-2.663l-8.33-6.4173c-0.95-0.5788-1.628-0.1508-2.211 0.8833z" stroke="url(#linearGradient4531)" stroke-linecap="square" fill="none"/>
  <path id="path2453" opacity=".75" d="m24.649 9.7353c0.968-0.4824 3.288-1.0775 4.066-1.2017 1.18-0.1883 0.682 1.0935 0.382 1.6534-0.498 0.932-5.625 11.918-6.123 12.85-0.45 0.839-1.042 1.298-1.447 0.561-0.395-0.72-1.671-2.304-1.987-2.952-0.344-0.707-0.087-1.416 0.331-2.289 1.126-2.347 2.977-5.823 3.865-7.517 0.486-0.9268 0.428-0.8631 0.913-1.1047z" stroke="url(#linearGradient4528)" fill="none"/>
  <path id="path2665" opacity="0.98" d="m18.903 9.8224c0.001 1.1606-0.995 2.1016-2.223 2.1016-1.229 0-2.225-0.941-2.224-2.1016-0.001-1.1604 0.995-2.1013 2.224-2.1013 1.228 0 2.224 0.9409 2.223 2.1013z" transform="matrix(-.69839 -.29487 -.36516 .92787 51.336 21.881)" fill="#2e3436"/>
  <path id="path2667" opacity=".95" d="m18.903 9.8224c0.001 1.1606-0.995 2.1016-2.223 2.1016-1.229 0-2.225-0.941-2.224-2.1016-0.001-1.1604 0.995-2.1013 2.224-2.1013 1.228 0 2.224 0.9409 2.223 2.1013z" transform="matrix(-0.682 -.33880 -.41083 .90477 54.495 15.242)" fill="#2e3436"/>
  <path id="path2669" opacity="0.98" d="m18.903 9.8224c0.001 1.1606-0.995 2.1016-2.223 2.1016-1.229 0-2.225-0.941-2.224-2.1016-0.001-1.1604 0.995-2.1013 2.224-2.1013 1.228 0 2.224 0.9409 2.223 2.1013z" transform="matrix(-.69839 -.29487 -.36516 .92787 44.312 18.861)" fill="#2e3436"/>
  <path id="path2671" opacity=".95" d="m18.903 9.8224c0.001 1.1606-0.995 2.1016-2.223 2.1016-1.229 0-2.225-0.941-2.224-2.1016-0.001-1.1604 0.995-2.1013 2.224-2.1013 1.228 0 2.224 0.9409 2.223 2.1013z" transform="matrix(-0.682 -.33880 -.41083 .90477 48.475 11.719)" fill="#2e3436"/>
  <path id="path2673" opacity=".975" d="m18.903 9.8224c0.001 1.1606-0.995 2.1016-2.223 2.1016-1.229 0-2.225-0.941-2.224-2.1016-0.001-1.1604 0.995-2.1013 2.224-2.1013 1.228 0 2.224 0.9409 2.223 2.1013z" transform="matrix(-.70495 -.28801 -.34356 .93240 49.399 16.409)" fill="#2e3436"/>
  <path id="path4512" opacity=".45" d="m33.625 13.969c-0.704 0.107-1.477 0.722-1.937 1.593-0.083 0.157-0.165 0.314-0.219 0.469-0.003 0.007 0.002 0.024 0 0.031 0.147 0.344 0.391 0.619 0.719 0.782 0.837 0.416 1.929-0.076 2.406-1.125 0.171-0.377 0.236-0.786 0.218-1.157-0.001-0.032 0.003-0.061 0-0.093-0.007-0.012-0.023-0.02-0.031-0.031-0.122-0.178-0.294-0.294-0.5-0.376-0.205-0.081-0.421-0.129-0.656-0.093z" fill="url(#radialGradient4551)"/>
  <g id="g3368" transform="translate(-1,11)">
   <g id="g2298" transform="matrix(-.68260 .17414 .16998 .63773 30.471 -2.6065)" fill="url(#linearGradient3565)">
    <path id="path2300" d="m39.037 12.873c1.681 3.292 2.145 3.997 1.728 7.182-0.259 1.982-3.934-3.04-3.934-3.04l2.206-4.142z" fill-rule="evenodd" stroke="url(#linearGradient3567)" stroke-width="1.4666px"/>
    <path id="path2302" d="m11.739 13.188c-0.605 1.096-1.648 2.327-1.354 4.947 0.245 2.191 4.452-2.686 4.452-2.686l-3.098-2.261z" fill-rule="evenodd" stroke="url(#linearGradient3567)" stroke-width="1.4666px"/>
    <path id="path2304" d="m14.02 15.5l23.069 1.909c1.951 0 3.521 1.57 3.521 3.521l-3.109 18.05c0 1.951-1.57 3.521-3.521 3.521l-18.137-3.255c-1.951 0-3.521-1.571-3.521-3.521l-1.823-16.704c0-1.951 1.57-3.521 3.521-3.521z" stroke="url(#linearGradient3567)" stroke-linecap="square" stroke-width="1.4666"/>
    <path id="path2306" d="m17.735 6.5987c-1.266 1.3076-5.284 5.0003-6.064 6.4323-1.038 1.906 0.671 2.5 1.777 2.5 1.841 0 22.413 1.909 24.255 1.909 1.659 0 2.816-1.754 2.114-3.103-0.685-1.317-2.204-5.2831-2.858-6.4017-0.714-1.2193-2.149-1.3776-3.829-1.459-4.515-0.2189-8.351-0.6177-11.682-0.6492-1.821-0.0172-3.004 0.0389-3.713 0.7716z" fill-rule="evenodd" stroke="url(#linearGradient3583)" stroke-width="1.4666"/>
   </g>
   <path id="path2387" opacity=".5" d="m23.556 10.636l-14.752 5.094c-1.1993 0.298-1.8624 1.233-1.3785 2.017l4.5505 10.009c0.545 1.278 1.318 1.98 2.517 1.681l11.021-4.846c1.199-0.299 1.923-1.419 1.625-2.512l-1.56-10.256c-0.299-1.093-0.825-1.485-2.023-1.187z" stroke="#fff" stroke-linecap="square" fill="none"/>
   <path id="path2389" opacity=".75" d="m19.138 5.521c0.952 0.4772 3.048 1.6802 3.844 2.1221 1.337 0.7428 0.589 1.0837-0.752 1.4188-1.096 0.2738-13.184 4.7241-14.286 4.9731-0.9921 0.225-1.4511-0.303-1.2324-1.067 0.2134-0.746 0.5313-2.919 0.7563-3.5627 0.2452-0.7014 1.0921-0.9322 2.0724-1.2421 2.6687-0.8437 5.1507-1.7464 7.5707-2.5219 1.063-0.3408 1.494-0.3876 2.027-0.1203z" stroke="#fff" fill="none"/>
   <g id="g2724">
    <g id="g2590" opacity=".95" transform="translate(-.55117 -23.539)">
     <path id="path2557" opacity="1" d="m18.78 21.436c0 1.536-1.245 2.78-2.78 2.78s-2.78-1.244-2.78-2.78c0-1.535 1.245-2.78 2.78-2.78s2.78 1.245 2.78 2.78z" transform="matrix(.87126 -.27936 .22212 .66286 3.3496 28.799)" fill="#2e3436"/>
     <path id="path2539" opacity=".35" d="m22.938 37.55c-0.295 0.015-0.575 0.094-0.876 0.188-1.178 0.37-1.99 1.259-2.062 2.187 0.576 0.597 1.612 0.804 2.656 0.469 1.285-0.412 2.086-1.512 1.844-2.5-0.438-0.23-0.996-0.371-1.562-0.344z" fill="url(#radialGradient3585)"/>
    </g>
    <g id="g2596" opacity="0.98" transform="translate(-3.5512 -18.539)">
     <path id="path2598" opacity="1" d="m18.78 21.436c0 1.536-1.245 2.78-2.78 2.78s-2.78-1.244-2.78-2.78c0-1.535 1.245-2.78 2.78-2.78s2.78 1.245 2.78 2.78z" transform="matrix(.87126 -.27936 .22212 .66286 3.3496 28.799)" fill="#2e3436"/>
     <path id="path2600" opacity=".25" d="m22.938 37.55c-0.295 0.015-0.575 0.094-0.876 0.188-1.178 0.37-1.99 1.259-2.062 2.187 0.576 0.597 1.612 0.804 2.656 0.469 1.285-0.412 2.086-1.512 1.844-2.5-0.438-0.23-0.996-0.371-1.562-0.344z" fill="url(#radialGradient3587)"/>
    </g>
    <g id="g2602" transform="translate(-6.5512 -13.539)">
     <path id="path2604" d="m18.78 21.436c0 1.536-1.245 2.78-2.78 2.78s-2.78-1.244-2.78-2.78c0-1.535 1.245-2.78 2.78-2.78s2.78 1.245 2.78 2.78z" transform="matrix(.87126 -.27936 .22212 .66286 3.3496 28.799)" fill="#2e3436"/>
     <path id="path2606" opacity=".2" d="m22.938 37.55c-0.295 0.015-0.575 0.094-0.876 0.188-1.178 0.37-1.99 1.259-2.062 2.187 0.576 0.597 1.612 0.804 2.656 0.469 1.285-0.412 2.086-1.512 1.844-2.5-0.438-0.23-0.996-0.371-1.562-0.344z" fill="url(#radialGradient3589)"/>
    </g>
   </g>
   <g id="g2720">
    <path id="path2620" opacity=".9" d="m35.027 6.7027c0 0.9726-1.092 1.7611-2.44 1.7611s-2.441-0.7885-2.44-1.7611c-0.001-0.9726 1.092-1.7611 2.44-1.7611s2.44 0.7885 2.44 1.7611z" transform="matrix(1.1025 -.36137 .39535 .69349 -24.357 16.082)" fill="#2e3436"/>
    <path id="path2654" opacity=".65" d="m15.031 7.4375c-0.385 0.0173-0.801 0.1042-1.219 0.2187-0.005 0.0038-0.026-0.0037-0.031 0-0.731 0.5501-1.219 1.3994-1.219 2.3438 0 0.142 0.011 0.269 0.032 0.406 0.648 0.11 1.477 0.055 2.312-0.218 1.485-0.4872 2.384-1.4515 2-2.1255-0.024-0.0421-0.061-0.087-0.094-0.125-0.32-0.3421-0.989-0.5355-1.781-0.5z" fill="url(#radialGradient3591)"/>
   </g>
  </g>
  <path id="path4553" opacity=".3" d="m39.687 17.614c-0.625 0.107-1.313 0.721-1.723 1.593-0.073 0.156-0.146 0.313-0.194 0.469-0.002 0.007 0.002 0.024 0 0.031 0.131 0.344 0.348 0.619 0.639 0.782 0.745 0.415 1.716-0.076 2.14-1.125 0.152-0.377 0.209-0.786 0.194-1.157-0.001-0.032 0.003-0.062 0-0.093-0.006-0.012-0.021-0.021-0.027-0.032-0.109-0.177-0.262-0.293-0.445-0.375-0.183-0.081-0.375-0.129-0.584-0.093z" fill="url(#radialGradient4555)"/>
  <path id="path4557" opacity=".25" d="m34.861 19.837c-0.704 0.108-1.477 0.722-1.938 1.594-0.083 0.156-0.164 0.313-0.219 0.469-0.002 0.007 0.003 0.024 0 0.031 0.148 0.344 0.392 0.619 0.719 0.781 0.837 0.416 1.93-0.076 2.406-1.125 0.171-0.377 0.236-0.785 0.219-1.156-0.001-0.032 0.003-0.062 0-0.094-0.007-0.011-0.024-0.02-0.031-0.031-0.122-0.177-0.295-0.293-0.5-0.375-0.206-0.081-0.422-0.129-0.656-0.094z" fill="url(#radialGradient4559)"/>
  <path id="path4561" opacity=".2" d="m36.59 25.15c-0.703 0.108-1.476 0.722-1.937 1.594-0.083 0.156-0.164 0.313-0.219 0.469-0.003 0.007 0.002 0.024 0 0.031 0.148 0.344 0.392 0.619 0.719 0.781 0.837 0.416 1.93-0.076 2.406-1.125 0.171-0.377 0.236-0.785 0.219-1.156-0.002-0.032 0.003-0.062 0-0.094-0.008-0.011-0.024-0.02-0.031-0.031-0.122-0.177-0.295-0.293-0.5-0.375-0.206-0.082-0.422-0.13-0.657-0.094z" fill="url(#radialGradient4563)"/>
  <path id="path4565" opacity=".25" d="m29.671 22.185c-0.703 0.107-1.476 0.722-1.937 1.594-0.083 0.156-0.164 0.313-0.219 0.468-0.002 0.008 0.003 0.024 0 0.032 0.148 0.344 0.392 0.618 0.719 0.781 0.837 0.416 1.93-0.076 2.406-1.125 0.171-0.377 0.236-0.786 0.219-1.156-0.002-0.033 0.003-0.062 0-0.094-0.007-0.011-0.024-0.02-0.031-0.031-0.122-0.178-0.295-0.294-0.5-0.375-0.206-0.082-0.422-0.13-0.657-0.094z" fill="url(#radialGradient4567)"/>
  <g id="g4593" opacity=".95" transform="matrix(-1 0 0 1 61.711 -7.0713)">
   <path id="path4595" opacity="0.98" d="m18.903 9.0502c0.001 0.5973-0.815 1.0818-1.822 1.0818s-1.823-0.4845-1.822-1.0818c-0.001-0.5973 0.815-1.0817 1.822-1.0817s1.823 0.4844 1.822 1.0817z" transform="matrix(.49953 1.0103 -.86991 .53012 36.143 -3.0543)" fill="#2e3436"/>
  </g>
  <path id="path4617" opacity=".65" d="m25.205 10.798c-0.541 0.153-1.126 0.836-1.466 1.766-0.061 0.167-0.121 0.334-0.16 0.498-0.002 0.008 0.002 0.025 0 0.033 0.12 0.347 0.314 0.617 0.569 0.766 0.654 0.381 1.489-0.194 1.837-1.308 0.125-0.401 0.168-0.828 0.148-1.211-0.002-0.033 0.001-0.064-0.002-0.097-0.006-0.011-0.019-0.019-0.025-0.03-0.097-0.177-0.233-0.287-0.393-0.359s-0.328-0.109-0.508-0.058z" fill="url(#radialGradient4619)"/>
 </g>
</svg>
