<?xml version="1.0" encoding="UTF-8"?>
<svg height="16px" viewBox="0 0 16 16" width="16px" xmlns="http://www.w3.org/2000/svg">
    <g fill="#241f31">
        <path d="m 2.917969 1 c -1.0625 0 -1.917969 0.855469 -1.917969 1.921875 v 10.15625 c 0 1.066406 0.855469 1.921875 1.917969 1.921875 h 10.164062 c 1.0625 0 1.917969 -0.855469 1.917969 -1.921875 v -10.15625 c 0 -1.066406 -0.855469 -1.921875 -1.917969 -1.921875 z m -0.003907 1 h 10.171876 c 0.507812 0 0.914062 0.40625 0.914062 0.910156 v 9.179688 c 0 0.503906 -0.40625 0.910156 -0.914062 0.910156 h -10.171876 c -0.507812 0 -0.914062 -0.40625 -0.914062 -0.910156 v -9.179688 c 0 -0.503906 0.40625 -0.910156 0.914062 -0.910156 z m 0 0"/>
        <path d="m 5 4 c 0 0.550781 -0.449219 1 -1 1 s -1 -0.449219 -1 -1 s 0.449219 -1 1 -1 s 1 0.449219 1 1 z m 0 0"/>
        <path d="m 13 4 c 0 0.550781 -0.449219 1 -1 1 s -1 -0.449219 -1 -1 s 0.449219 -1 1 -1 s 1 0.449219 1 1 z m 0 0"/>
        <path d="m 13 11 c 0 0.550781 -0.449219 1 -1 1 s -1 -0.449219 -1 -1 s 0.449219 -1 1 -1 s 1 0.449219 1 1 z m 0 0"/>
        <path d="m 5 11 c 0 0.550781 -0.449219 1 -1 1 s -1 -0.449219 -1 -1 s 0.449219 -1 1 -1 s 1 0.449219 1 1 z m 0 0"/>
        <path d="m 9 7.707031 c 0 0.554688 -0.449219 1 -1 1 s -1 -0.445312 -1 -1 c 0 -0.550781 0.449219 -1 1 -1 s 1 0.449219 1 1 z m 0 0"/>
    </g>
</svg>
