<?xml version="1.0" encoding="UTF-8" standalone="no"?>
<!--
	(c) 2004 Ryan Stutsman
	
    This work is free; you can redistribute it and/or modify
    it under the terms of the GNU General Public License as published by
    the Free Software Foundation; either version 2 of the License, or
    (at your option) any later version.

    This work is distributed in the hope that it will be useful,
    but WITHOUT ANY WARRANTY; without even the implied warranty of
    MERCHANTABILITY or FITNESS FOR A PARTICULAR PURPOSE.  See the
    GNU General Public License for more details.

    You should have received a copy of the GNU General Public License
    along with this program; if not, write to the Free Software
    Foundation, Inc., 59 Temple Place, Suite 330, Boston, MA  02111-1307  USA
-->
<svg id="svg559" xmlns:rdf="http://www.w3.org/1999/02/22-rdf-syntax-ns#" xmlns="http://www.w3.org/2000/svg" height="80" width="80" version="1.0" y="0" x="0" xmlns:cc="http://creativecommons.org/ns#" xmlns:xlink="http://www.w3.org/1999/xlink" xmlns:dc="http://purl.org/dc/elements/1.1/">
 <metadata id="metadata7964">
  <rdf:RDF>
   <cc:Work rdf:about="">
    <dc:format>image/svg+xml</dc:format>
    <dc:type rdf:resource="http://purl.org/dc/dcmitype/StillImage"/>
   </cc:Work>
  </rdf:RDF>
 </metadata>
 <defs id="defs561">
  <linearGradient id="linearGradient579">
   <stop id="stop580" stop-color="#fff" offset="0"/>
   <stop id="stop581" stop-color="#656566" offset="1"/>
  </linearGradient>
  <radialGradient id="radialGradient568" xlink:href="#linearGradient579" cy=".50781" cx=".27692" r=".70375"/>
  <radialGradient id="radialGradient570" xlink:href="#linearGradient579" cy=".20313" cx=".22895" r="1.8091"/>
  <radialGradient id="radialGradient572" xlink:href="#linearGradient579" gradientUnits="userSpaceOnUse" cy="182.08" cx="367.49" gradientTransform="matrix(1 0 0 .47222 0 96.095)" r="60.135"/>
  <radialGradient id="radialGradient574" cy="-2.5469" cx=".23189" r="6.4073">
   <stop id="stop8312" stop-color="#fff" offset="0"/>
   <stop id="stop8314" stop-color="#656566" offset="1"/>
  </radialGradient>
  <radialGradient id="radialGradient3699" gradientUnits="userSpaceOnUse" cy="105.99" cx="379.78" gradientTransform="matrix(.89104 -.0050939 .0047198 .93941 40.756 8.2261)" r="16.704">
   <stop id="stop3695" stop-color="#ff0023" stop-opacity=".49804" offset="0"/>
   <stop id="stop3697" stop-color="red" stop-opacity=".91765" offset="1"/>
  </radialGradient>
 </defs>
 <g id="g588">
  <path id="path572" d="m360.47 51.125c-16.19 1.24-26.61 4.791-41.65 17.585-14.93 16.948-31.2 34.85-36.98 61.77-9.57 58.93 30.96 81.67 46.63 90.04 15 5.36 29.43 13.03 45.01 16.08 13.4 2.08 26.8 0.7 40.2-2.41 34.13-16.65 46.3-58.13 53.86-88.06 3.73-18.58 3.45-40.42-5.63-51.821-11.04-15.098-33.07-30.773-60.87-38.361-15.61-6.807-28.98-6.556-40.57-4.823z" transform="matrix(.38621 0 0 .38621 -105.02 -14.627)" stroke="#000" stroke-width="2.5" fill="url(#radialGradient568)"/>
  <ellipse id="path569" fill-rule="evenodd" rx="65.146" ry="46.772" transform="matrix(.43572 0 0 .44664 -21.932 -18.827)" cy="103.57" cx="138.64" fill="url(#radialGradient570)"/>
  <ellipse id="path571" fill-rule="evenodd" rx="60.135" ry="28.397" transform="matrix(.37994 .15658 -.15114 .39361 -81.124 -67.585)" cy="182.08" cx="367.49" fill="url(#radialGradient572)"/>
  <ellipse id="path573" fill-rule="evenodd" rx="60.135" ry="21.715" transform="matrix(.12826 -.30808 .20865 .18938 -34.502 164.28)" cy="188.76" cx="481.08" fill="url(#radialGradient574)"/>
  <ellipse id="path575" fill-rule="evenodd" rx="16.704" ry="13.363" transform="matrix(.46346 0 0 .43448 -141.17 -33.301)" cy="110.25" cx="374.17" fill="url(#radialGradient3699)"/>
  <ellipse id="ellipse588" fill-rule="evenodd" rx="16.704" ry="13.363" transform="matrix(.46346 0 0 .43448 -127.87 -7.4394)" cy="110.25" cx="374.17" fill="url(#radialGradient3699)"/>
  <ellipse id="ellipse602" fill-rule="evenodd" rx="16.704" ry="13.363" transform="matrix(.46346 0 0 .43448 -134.99 -20.406)" cy="110.25" cx="374.17" fill="url(#radialGradient3699)"/>
  <ellipse id="ellipse618" fill-rule="evenodd" rx="16.704" ry="13.363" transform="matrix(.46346 0 0 .43448 -151.99 -15.162)" cy="110.25" cx="374.17" fill="url(#radialGradient3699)"/>
  <ellipse id="ellipse619" fill-rule="evenodd" rx="16.704" ry="13.363" transform="matrix(.46346 0 0 .43448 -119.8 -26.166)" cy="110.25" cx="374.17" fill="url(#radialGradient3699)"/>
 </g>
</svg>
