/* XPM */
static char * gnome_dice_6_xpm[] = {
"64 64 61 1",
" 	c None",
".	c #FF1F1B",
"+	c #FF1A16",
"@	c #FC1613",
"#	c #E11411",
"$	c #930D0B",
"%	c #4A0605",
"&	c #480605",
"*	c #910D0B",
"=	c #FF1A17",
"-	c #FD1E19",
";	c #F21E18",
">	c #DB1C16",
",	c #C81A15",
"'	c #CA1B15",
")	c #E11F18",
"!	c #F6211B",
"~	c #FC231C",
"{	c #C31814",
"]	c #7B3A38",
"^	c #554949",
"/	c #646464",
"(	c #988281",
"_	c #D46561",
":	c #F7231C",
"<	c #DB1B16",
"[	c #242424",
"}	c #131313",
"|	c #3E3E3E",
"1	c #838383",
"2	c #C4C4C4",
"3	c #F57571",
"4	c #C81914",
"5	c #212121",
"6	c #737373",
"7	c #C3C3C3",
"8	c #EFEFEF",
"9	c #FFE9E7",
"0	c #CA1A14",
"a	c #FEFEFE",
"b	c #FFFFFF",
"c	c #E11E17",
"d	c #F6201A",
"e	c #FFA29B",
"f	c #FC211B",
"g	c #F7221B",
"h	c #F57470",
"i	c #FFE8E7",
"j	c #FF2E24",
"k	c #FC0809",
"l	c #D91311",
"m	c #940D0B",
"n	c #8C0C0B",
"o	c #4E0706",
"p	c #FF1915",
"q	c #FF1714",
"r	c #5B0807",
"s	c #970D0B",
"t	c #F41613",
"u	c #A80F0D",
"v	c #E41412",
".+++++++++++++++++++++++++++++++++++++++++++++++++++++++++      ",
"+@@@@@@@@@@@@@@@@@@@@@@@@@@@@@@@@@@@@@@@@@@@@@@@@@@@@@@@@@#     ",
"+@@@@@@@@@@@@@@@@@@@@@@@@@@@@@@@@@@@@@@@@@@@@@@@@@@@@@@@@@#$    ",
"+@@@@@@@@@@@@@@@@@@@@@@@@@@@@@@@@@@@@@@@@@@@@@@@@@@@@@@@@@#$%   ",
"+@@@@@@@@@@@@@@@@@@@@@@@@@@@@@@@@@@@@@@@@@@@@@@@@@@@@@@@@@#$%&  ",
"+@@@@@@@@@@@@@@@@@@@@@@@@@@@@@@@@@@@@@@@@@@@@@@@@@@@@@@@@@#$%&* ",
"+@@@@@@@@@@@@@@@@@@@@@@@@@@@@@@@@@@@@@@@@@@@@@@@@@@@@@@@@@#$%&*=",
"+@@@@@@@@@@@@@@@@@@@@@@@@@@@@@@@@@@@@@@@@@@@@@@@@@@@@@@@@@#$%&*=",
"+@@@@@@@@@@@@@@@@@@@@@@@@@@@@@@@@@@@@@@@@@@@@@@@@@@@@@@@@@#$%&*=",
"+@@@@@@@@-;>,')!~@@@@@@@@@@@@@@@@@@@@@@@@-;>,')!~@@@@@@@@@#$%&*=",
"+@@@@@@@@;{]^/(_:@@@@@@@@@@@@@@@@@@@@@@@@;{]^/(_:@@@@@@@@@#$%&*=",
"+@@@@@@@@<][}|123@@@@@@@@@@@@@@@@@@@@@@@@<][}|123@@@@@@@@@#$%&*=",
"+@@@@@@@@4^}56789@@@@@@@@@@@@@@@@@@@@@@@@4^}56789@@@@@@@@@#$%&*=",
"+@@@@@@@@0/|6abbb@@@@@@@@@@@@@@@@@@@@@@@@0/|6abbb@@@@@@@@@#$%&*=",
"+@@@@@@@@c(17bbbb@@@@@@@@@@@@@@@@@@@@@@@@c(17bbbb@@@@@@@@@#$%&*=",
"+@@@@@@@@d_28bbbe@@@@@@@@@@@@@@@@@@@@@@@@d_28bbbe@@@@@@@@@#$%&*=",
"+@@@@@@@@fghibbej@@@@@@@@@@@@@@@@@@@@@@@@fghibbej@@@@@@@@@#$%&*=",
"+@@@@@@@@@@@@@@@@@@@@@@@@@@@@@@@@@@@@@@@@@@@@@@@@@@@@@@@@@#$%&*=",
"+@@@@@@@@@@@@@@@@@@@@@@@@@@@@@@@@@@@@@@@@@@@@@@@@@@@@@@@@@#$%&*=",
"+@@@@@@@@@@@@@@@@@@@@@@@@@@@@@@@@@@@@@@@@@@@@@@@@@@@@@@@@@#$%&*=",
"+@@@@@@@@@@@@@@@@@@@@@@@@@@@@@@@@@@@@@@@@@@@@@@@@@@@@@@@@@#$%&*=",
"+@@@@@@@@@@@@@@@@@@@@@@@@@@@@@@@@@@@@@@@@@@@@@@@@@@@@@@@@@#$%&*=",
"+@@@@@@@@@@@@@@@@@@@@@@kkkkkkkkkkkkkk@@@@@@@@@@@@@@@@@@@@@#$%&*=",
"+@@@@kkkkkkkkkkkkkk@@@@kkkkkkkkkkkkkk@@@@@@@@@@@@@@@@@@@@@#$%&*=",
"+@@@@kkkkkkkkkkkkkk@@@@kkkkkkkkkkkkkk@@@@@@@@@@@@@@@@@@@@@#$%&*=",
"+@@@@kkkk-;>,')!~kk@@@@kkkkkkkkkkkkkk@@@@-;>,')!~@@@@@@@@@#$%&*=",
"+@@@@kkkk;{]^/(_:kk@@@@kkkkkkkkkkkkkk@@@@;{]^/(_:@@@@@@@@@#$%&*=",
"+@@@@kkkk<][}|123kk@@@@kkkkkkkkkkkkkk@@@@<][}|123@@@@@@@@@#$%&*=",
"+@@@@kkkk4^}56789kk@@@@kkkkkkkkkkkkkk@@@@4^}56789@@@@@@@@@#$%&*=",
"+@@@@kkkk0/|6abbbkk@@@@kkkkkkkkkkkkkk@@@@0/|6abbb@@@@@@@@@#$%&*=",
"+@@@@kkkkc(17bbbbkk@@@@kkkkkkkkkkkkkk@@@@c(17bbbb@@@@@@@@@#$%&*=",
"+@@@@kkkkd_28bbbekk@@@@kkkkkkkkkkkkkk@@@@d_28bbbe@@@@@@@@@#$%&*=",
"+@@@@kkkkfghibbejkk@@@@kkkkkkkkkkkkkk@@@@fghibbej@@@@@@@@@#$%&*=",
"+@@@@kkkkkkkkkkkkkk@@@@kkkkkkkkkkkkkk@@@@@@@@@@@@@@@@@@@@@#$%&*=",
"+@@@@kkkkkkkkkkkkkk@@@@kkkkkkkkkkkkkk@@@@@@@@@@@@@@@@@@@@@#$%&*=",
"+@@@@@@@@@@@@@@@@@@@@@@kkkkkkkkkkkkkk@@@@@@@@@@@@@@@@@@@@@#$%&*=",
"+@@@@@@@@@@@@@@@@@@@@@@kkkkkkkkkkkkkk@@@@@@@@@@@@@@@@@@@@@#$%&*=",
"+@@@@@@@@@@@@@@@@@@@@@@kkkkkkkkkkkkkk@@@@@@@@@@@@@@@@@@@@@#$%&*=",
"+@@@@@@@@@@@@@@@@@@@@@@@@@@@@@@@@@@@@@@@@@@@@@@@@@@@@@@@@@#$%&*=",
"+@@@@@@@@@@@@@@@@@@@@@@@@@@@@@@@@@@@@@@@@@@@@@@@@@@@@@@@@@#$%&*=",
"+@@@@@@@@@@@@@@@@@@@@@@@@@@@@@@@@@@@@@@@@@@@@@@@@@@@@@@@@@#$%&*=",
"+@@@@@@@@-;>,')!~@@@@@@@@@@@@@@@@@@@@@@@@-;>,')!~@@@@@@@@@#$%&*=",
"+@@@@@@@@;{]^/(_:@@@@@@@@@@@@@@@@@@@@@@@@;{]^/(_:@@@@@@@@@#$%&*=",
"+@@@@@@@@<][}|123@@@@@@@@@@@@@@@@@@@@@@@@<][}|123@@@@@@@@@#$%&*=",
"+@@@@@@@@4^}56789@@@@@@@@@@@@@@@@@@@@@@@@4^}56789@@@@@@@@@#$%&*=",
"+@@@@@@@@0/|6abbb@@@@@@@@@@@@@@@@@@@@@@@@0/|6abbb@@@@@@@@@#$%&*=",
"+@@@@@@@@c(17bbbb@@@@@@@@@@@@@@@@@@@@@@@@c(17bbbb@@@@@@@@@#$%&*=",
"+@@@@@@@@d_28bbbe@@@@@@@@@@@@@@@@@@@@@@@@d_28bbbe@@@@@@@@@#$%&*=",
"+@@@@@@@@fghibbej@@@@@@@@@@@@@@@@@@@@@@@@fghibbej@@@@@@@@@#$%&*=",
"+@@@@@@@@@@@@@@@@@@@@@@@@@@@@@@@@@@@@@@@@@@@@@@@@@@@@@@@@@#$%&*=",
"+@@@@@@@@@@@@@@@@@@@@@@@@@@@@@@@@@@@@@@@@@@@@@@@@@@@@@@@@@#$%&*=",
"+@@@@@@@@@@@@@@@@@@@@@@@@@@@@@@@@@@@@@@@@@@@@@@@@@@@@@@@@@#$%&*=",
"+@@@@@@@@@@@@@@@@@@@@@@@@@@@@@@@@@@@@@@@@@@@@@@@@@@@@@@@@@#$%&*=",
"+@@@@@@@@@@@@@@@@@@@@@@@@@@@@@@@@@@@@@@@@@@@@@@@@@@@@@@@@@#$%&*=",
"+@@@@@@@@@@@@@@@@@@@@@@@@@@@@@@@@@@@@@@@@@@@@@@@@@@@@@@@@@#$%&*=",
"+@@@@@@@@@@@@@@@@@@@@@@@@@@@@@@@@@@@@@@@@@@@@@@@@@@@@@@@@@#$%&*=",
"+@@@@@@@@@@@@@@@@@@@@@@@@@@@@@@@@@@@@@@@@@@@@@@@@@@@@@@@@@#$%&*=",
"+@@@@@@@@@@@@@@@@@@@@@@@@@@@@@@@@@@@@@@@@@@@@@@@@@@@@@@@@@#$%&*=",
" #########################################################lm%&*+",
"  $$$$$$$$$$$$$$$$$$$$$$$$$$$$$$$$$$$$$$$$$$$$$$$$$$$$$$$$mno&*p",
"   %%%%%%%%%%%%%%%%%%%%%%%%%%%%%%%%%%%%%%%%%%%%%%%%%%%%%%%%o%o*q",
"    &&&&&&&&&&&&&&&&&&&&&&&&&&&&&&&&&&&&&&&&&&&&&&&&&&&&&&&&orst",
"     ********************************************************suv",
"      ====================================================+pqtv."};
