/* XPM */
static const char * gnome_dice_5_xpm[] = {
"64 64 256 2",
"  	c None",
". 	c #020202",
"+ 	c #928256",
"@ 	c #5C2621",
"# 	c #AF4A3E",
"$ 	c #D1C2BD",
"% 	c #62563A",
"& 	c #262E2A",
"* 	c #9C4237",
"= 	c #C6BA83",
"- 	c #4F201A",
"; 	c #B15C4C",
"> 	c #8F3E34",
", 	c #D3B186",
"' 	c #3C1A14",
") 	c #5E5032",
"! 	c #B46655",
"~ 	c #AA9662",
"{ 	c #803630",
"] 	c #B2A676",
"^ 	c #91574A",
"/ 	c #2D1210",
"( 	c #B2766A",
"_ 	c #722E35",
": 	c #C29E72",
"< 	c #1A2622",
"[ 	c #BA847C",
"} 	c #92765E",
"| 	c #36423E",
"1 	c #C97361",
"2 	c #200E0B",
"3 	c #62382C",
"4 	c #502E2B",
"5 	c #BE9A6E",
"6 	c #DED2AA",
"7 	c #62524A",
"8 	c #E9BD9F",
"9 	c #622A1E",
"0 	c #CD7B67",
"a 	c #0E1616",
"b 	c #3D2E23",
"c 	c #C78377",
"d 	c #BF6654",
"e 	c #190C09",
"f 	c #99584B",
"g 	c #CABAB6",
"h 	c #743E36",
"i 	c #A25246",
"j 	c #945247",
"k 	c #373530",
"l 	c #C68E82",
"m 	c #D2A296",
"n 	c #EEE2AE",
"o 	c #662E22",
"p 	c #AA6C5F",
"q 	c #D57A68",
"r 	c #A3453B",
"s 	c #7E463A",
"t 	c #C68A82",
"u 	c #CCB7B2",
"v 	c #C35D4F",
"w 	c #C96656",
"x 	c #8E463B",
"y 	c #120807",
"z 	c #726440",
"A 	c #2A2A26",
"B 	c #A2564E",
"C 	c #3F3220",
"D 	c #AF4E44",
"E 	c #D5826F",
"F 	c #793A31",
"G 	c #6B3022",
"H 	c #CE7562",
"I 	c #524A2E",
"J 	c #A97760",
"K 	c #51322E",
"L 	c #BEB2AE",
"M 	c #443826",
"N 	c #36261E",
"O 	c #D6B28A",
"P 	c #5D2A20",
"Q 	c #A55E53",
"R 	c #0C1010",
"S 	c #6E2A33",
"T 	c #BB5449",
"U 	c #D67E69",
"V 	c #E7D3D1",
"W 	c #804238",
"X 	c #9C4A40",
"Y 	c #CE867E",
"Z 	c #773627",
"` 	c #C99E97",
" .	c #A29263",
"..	c #E2CAC6",
"+.	c #A24C42",
"@.	c #552621",
"#.	c #0E0605",
"$.	c #BE5B4E",
"%.	c #C6BA96",
"&.	c #2E261E",
"*.	c #D16656",
"=.	c #C8A49E",
"-.	c #B15345",
";.	c #8A3D33",
">.	c #DE7E6B",
",.	c #DB826A",
"'.	c #3F3932",
").	c #6B2E28",
"!.	c #6A2A32",
"~.	c #D1ACA7",
"{.	c #323A32",
"].	c #E2B6AE",
"^.	c #CEBABA",
"/.	c #4C3E34",
"(.	c #875246",
"_.	c #DA7E66",
":.	c #090A0A",
"<.	c #924E40",
"[.	c #D47260",
"}.	c #383A36",
"|.	c #6C4238",
"1.	c #DC9E8E",
"2.	c #B46255",
"3.	c #484239",
"4.	c #441C1A",
"5.	c #313632",
"6.	c #B27A72",
"7.	c #1E1E1E",
"8.	c #D28A82",
"9.	c #5C2B28",
"0.	c #622A22",
"a.	c #C89894",
"b.	c #803B2C",
"c.	c #6B322C",
"d.	c #0A0603",
"e.	c #E2AC9C",
"f.	c #2E1E18",
"g.	c #CA8E86",
"h.	c #64262F",
"i.	c #743229",
"j.	c #542228",
"k.	c #D16A58",
"l.	c #DA7A69",
"m.	c #803C38",
"n.	c #A84A3F",
"o.	c #412821",
"p.	c #F3D8B2",
"q.	c #D6BAB6",
"r.	c #D57662",
"s.	c #DCC4BE",
"t.	c #B85B4D",
"u.	c #726A4A",
"v.	c #5C322C",
"w.	c #95463C",
"x.	c #2A302E",
"y.	c #EEE2BC",
"z.	c #DA8671",
"A.	c #884C40",
"B.	c #463E26",
"C.	c #964136",
"D.	c #B25550",
"E.	c #8E6252",
"F.	c #68382F",
"G.	c #E6BEBA",
"H.	c #64322B",
"I.	c #753631",
"J.	c #B46E60",
"K.	c #7A3231",
"L.	c #6E665A",
"M.	c #9A5E53",
"N.	c #DA826E",
"O.	c #BF7363",
"P.	c #424A44",
"Q.	c #EAD6AE",
"R.	c #6A2E30",
"S.	c #622A2C",
"T.	c #6E3E34",
"U.	c #DA8E79",
"V.	c #C06C5D",
"W.	c #C96B5A",
"X.	c #A84E42",
"Y.	c #724D3B",
"Z.	c #23140F",
"`.	c #55292B",
" +	c #8A4236",
".+	c #C07B6F",
"++	c #5B222C",
"@+	c #D6B2AC",
"#+	c #622E26",
"$+	c #3F3E37",
"%+	c #733233",
"&+	c #CC7E70",
"*+	c #927E56",
"=+	c #E1A68E",
"-+	c #B65447",
";+	c #C56251",
">+	c #D67E6E",
",+	c #C2B68E",
"'+	c #7A3F33",
")+	c #D4988E",
"!+	c #F6E6BE",
"~+	c #DE8271",
"{+	c #9C463B",
"]+	c #C08C82",
"^+	c #A96356",
"/+	c #954A3D",
"(+	c #151616",
"_+	c #DA7661",
":+	c #D16E5C",
"<+	c #533D34",
"[+	c #DA7E6D",
"}+	c #492724",
"|+	c #D69E92",
"1+	c #904238",
"2+	c #301713",
"3+	c #D67A6E",
"4+	c #662A2F",
"5+	c #9C4E43",
"6+	c #463232",
"7+	c #A75247",
"8+	c #DB8A76",
"9+	c #DE8673",
"0+	c #7A3636",
"a+	c #6E2E32",
"b+	c #BE6256",
"c+	c #5D2A2F",
"d+	c #863A2E",
"e+	c #060303",
"f+	c #B64E44",
"g+	c #652E2D",
"h+	c #863D37",
"i+	c #3C1F1B",
"j+	c #5C262C",
"k+	c #DA8676",
"l+	c #AA463C",
"m+	c #D5766A",
"n+	c #6D3233",
"o+	c #DA8272",
"p+	c #393E38",
"q+	c #3F433E",
"r+	c #462E26",
"s+	c #AA584C",
"t+	c #6E362C",
"u+	c #232724",
"v+	c #C79880",
"w+	c #542A24",
"x+	c #89463E",
"y+	c #C9ABA5",
"z+	c #E1BEB8",
"A+	c #463E36",
"B+	c #D38F84",
"C+	c #1A1E1E",
"D+	c #D7ACA6",
"E+	c #30302C",
"F+	c #BE766E",
"G+	c #4A1E26",
"                                                                                                                                ",
"                                                                                                                                ",
"                                                                                                                                ",
"                                                                                                                                ",
"                                                                                                                                ",
"                                                                                                                                ",
"                                                                                                                                ",
"                                                  . . . . . . . . . . .                                                         ",
"                                            . . :.f.A.<.A.j j A.'+'+h #+i+2+e .                                                 ",
"                                      . . (+Z.|.<.; 2.J.V.O.F+V.J.! s+B i X X 1+@./ .                                           ",
"                                  . Z.2+h ^ j V.l.l.,.8+z._.z.z.~+[+r.[.W.v $.-.n.> 0.y .                                       ",
"                                y 2+W i b+b+W.1 U E ,.,.N._.U l.U U N.N.U r.W.;+t.-.w.> 4.d..                                   ",
"                              :.7 ^ 5+; V.r.l.H J : , =+N.l.>+_+l.l.q [+N.[+q r.k.t.D.{+d+d+t+e+.                               ",
"                            d.L.^ B t.W.q _.0 Y.z  .,+n p.k+l.>+3+3+N.z.8+z.N.E U r.w -+-.D X F c..                             ",
"                          . 3.M.; ; :+q E E ^+M ) ~ = Q.!+8 q N.o+o+k+8+U.8+z.E z.z.U k.t.-+v i F b.d.                          ",
"                        . F J ( d W.U _.U _.M.C ) *+] 6 y.8 o+>+E E E z.,.&+J : , =+z._.k.v t.b+B '+b.2+                        ",
"                      . @.j .+( :+q z.E >+E &+b B.z  .,+,+l 0 3+3+>+>+E 0 Y.z  .,+n Q.U.,.k.-+t.t.<./+h+e                       ",
"                      . <.p t O.H z.E _.E ,.>.^ M I ) z } O.m+m+m+q >+E Q M )  .= Q.!+8 ,.[.$.X.; Q s <.'+d.                    ",
"                    . E.A.l t 1 r.E l._.[+z.,.[+1 ^ (.^+H 3+m+r.m+q l.[+f C ) *+] 6 n 8 U l.k.-+X.; j A.W }+.                   ",
"                    e A.p ` c W.q l.U N.z.o+>+U l.m+q 3+H p 5 , 1.>+E ,.1 b B.z  .,+%.v+U E l.t.X.B M.5+A.@.:.                  ",
"                  . o.i ]+D+O.:+q E >+z.z.o+l.3+3+3+>+H Y.z  .,+n p.k+N.q j M I ) u.} J.l.E ,.W.-.w.^ X X g+e                   ",
"                  e+F.M.` D+W.[.q [+z.9+k+>+3+>+[+>+3+^+M ) ~ = Q.!+8 q _.r.W.^ (.^+>+N.E U U r.; w.5+x+;._ / .                 ",
"                . 2 x+p ` 1.W.[.q U z.8+z.>+>+k+k+>+q f C ) *+] 6 y.8 >+q l._+>.o+o+o+E >+U U O.V.C.* > '+).}+d.                ",
"                . j.B ]+=.B+k.:+r.U &+J : , =+U.8+>+>+&+b M z  .,+%.v+>+[+>+[+[+~+~+[+[+U U 0 H ; +.> ;.h o ' e+                ",
"                e  +J.a.y+|+[.:+r.H Y.z  .= n p.U.N.>+U ^ M I ) z } F+z.[+[+[+~+~+9+[+q q r.1 1 -.* d+i.K H.2+.                 ",
"              . ).w.F+~.^.m k.k.[.^+M ) ~ ,+Q.!+8 o+[+>+[+1 ^ (.^+&+z.k+k+>+o+[+~+~+>.l.r._+1 k.7+> K.h.6+w+2 .                 ",
"              . ).5+.+~.$ @+k.k.r.f C ) + ] 6 y.8 E o+>+[+l.3+>+[+>+0 J : , =+k+~+[+>.l.l.r.H d n.d+).4.b o.e .                 ",
"              . P i .+~.$ z+E *.1 0 b B.z  .,+%.v+o+o+E >+>+>+>+>+&+Y.z  .,+n p.8+>.l.>.U 0 0 ; * d+++4.E+f.2 .                 ",
"              e+G+s+c y+g z+)+*.:+0 ^ M I ) L.} O.E o+k+o+[+[+o+[+^+M ) ~ ,+Q.!+8 >._.[+q V.d -.C.K.@.v.k &.' .                 ",
"              #.c.; c y+g u z+8.*.r.r.1 ^ (.p >+>+o+k+o+o+>+>+o+E M.C ) *+] 6 y.8 ,.>.9+0 W.T * d+h.}+/.5.E+f..                 ",
"              e F 2..+=.g L s.G.&+k.[.q q q E 8+8+k+z.k+k+o+o+k+o+0 b B.z  .,+%.v+N.z.z.1 ;+n.l+d+9 4 3.5.E+u+:.                ",
"              2 h+; F+` ..$ ^...].r.:+r.q q _.,.9+z.~+o+8+k+E [+[+3+^ M I % z } V.z.z.H b+X.D C.K.}+/.3.5.E+< .                 ",
"              Z./+t.V.l y+^.z+V Q.z+8.[.[.U l.l._.z.z.o+z.o+8+8.8+E N.H ^ A.^+U E E r.v X.# r K.9.b '.'.5.k R .                 ",
"              / 1+B 2.p 6.a.~.~.s...].e.B+U r.r.[.r.U E [+N.,.8+8+z.N.[+_+q _.E _.[.v -.D n.w.Z o.'.3.}.k E+a                   ",
"              2+{+C./+x+/+s+D.B ^+6.a.D+@+D+B+c w *.k.:+r.q U E E ,.E [+U U l.[.w t.D # X.-./+3 b $+q+p+k k R                   ",
"              / 1+1+{+{+X.n.+.+.n.-.s+! F+Y B+8.V.T T v ;+w :+[.[.[.[.1 k.;+t.T -.T f+-+-.7+1+r+k '.}.'.}.E+.                   ",
"              / d+* +.* X X w.w.w.w.1+x /++.7+; s+7+-.-+T T T T v ;+v $.T -+T # f+T T T D.+.m.b p+q+p+}.5.u+.                   ",
"              . i.;.{+{+1+ +h+F a+_ F F b.m.h+ +5+i X.X.7+7+X.+.n.D -+D D l+# f+T T -+D.; 5+F.k B.$+| $+k .                     ",
"              . 9 >  +/+m.I.R.@ S.!._ %+I.%+a+4+g+I.h+X +.X /+ +* # l+l+# D n.D -.7+-.D D x+<+}.3.$+q+q+E+.                     ",
"                2 b.c.m.m.a+R.I.K._ _ %+_ a+S S _ a+%+R.%+b.d+1+w.* C.l+# l+r r +.D.X.D n.s /.'.3.| P.k u+.                     ",
"                e+b.).F I.n+0+a+a+_ h.a+!.a+S S S _ S n+0+%+i.a+i.> X {+* * r * * # n.# r |.3.}.$+q+q+}..                       ",
"                . { #+H.n+%+%+%+_ _ _ 4+S.a+h.S h.S S _ R.g+%+{ Z G G ;.X +.* r # n.n.n.x+<+A+$+5.p+}.u+.                       ",
"                  Z.b.- t+n+a+a+%+_ !.%+4+9.S S S S h.S !.c+#+R.g+i.).).b.w.5+> # l+* r W <+/.{.5.}.5.(+                        ",
"                  . ;.#+H.n+n+R.S a+R.a+a+4+S.a+S ++++++S.R.S.#+R.n+R.P @ I. +/+h+l+X {+|.<+}.E+5.p+x..                         ",
"                    e b.#+F ).c.S.S.c+n+g+R.a+a+a+!.++j.++S.4+g+4+#+4+h.++++%+x+W C.X.{+|./.5.& P.| C+                          ",
"                      2+Z Z v.g+#+P !.S.4+R.c.g+4+4+S.++j+h.j+h.S.S !.!.4+4+h.h x+;.r C.t+p+A 5.q+E+.                           ",
"                        #.).@ @.P c+@ ).R.R.R.g+4+S.g+!.j+j+j+j+j+j+!.!.S !.++a+m.m.1+ +3 '.u+}.5.C+                            ",
"                          . #+P w+#+c.n+S.g+H.c.g+j+h.h.c+j.j.G+j.j.j.j+S S !.h.%+ +'+0+H.b E+& A d.                            ",
"                            . e @ 9 ).).).4+#+H.n+g+g+c+j+j.j.G+G+j.j.S.a+R.c+j+H.F h { P 4 u+& (+                              ",
"                                e+' @ P @ P #+c.H.#+g+c+c+c+@.j.j.j.j+h.R.g+j+4 I.h h Z P r+7.(+                                ",
"                                    #.- @ @.P 9.@ 9.w+9.9.g+c+c+`.`.`.g+`.`.4 v.h T.c.- 2+e .                                   ",
"                                        #.e w+- - - j.@ j+@.@.@.`.}+`.#+H.H.v.F.h F ' #.e+.                                     ",
"                                            . y b o.' 4.G+- - G+j+g+c.n+t+t+v.t+G ' e+. .                                       ",
"                                                  . . . . . . . . . . . . . . . . . . .                                         ",
"                                                          . . . . . . . . . . . . .                                             ",
"                                                                                                                                ",
"                                                                                                                                ",
"                                                                                                                                ",
"                                                                                                                                ",
"                                                                                                                                ",
"                                                                                                                                ",
"                                                                                                                                ",
"                                                                                                                                ",
"                                                                                                                                "};
