/* XPM */
static char * gnome_dice_3_xpm[] = {
"64 64 61 1",
" 	c None",
".	c #FF1F1B",
"+	c #FF1A16",
"@	c #FC1613",
"#	c #E11411",
"$	c #930D0B",
"%	c #4A0605",
"&	c #480605",
"*	c #910D0B",
"=	c #FC0809",
"-	c #FF1A17",
";	c #FD1E19",
">	c #F21E18",
",	c #DB1C16",
"'	c #C81A15",
")	c #CA1B15",
"!	c #E11F18",
"~	c #F6211B",
"{	c #FC231C",
"]	c #C31814",
"^	c #7B3A38",
"/	c #554949",
"(	c #646464",
"_	c #988281",
":	c #D46561",
"<	c #F7231C",
"[	c #DB1B16",
"}	c #242424",
"|	c #131313",
"1	c #3E3E3E",
"2	c #838383",
"3	c #C4C4C4",
"4	c #F57571",
"5	c #C81914",
"6	c #212121",
"7	c #737373",
"8	c #C3C3C3",
"9	c #EFEFEF",
"0	c #FFE9E7",
"a	c #CA1A14",
"b	c #FEFEFE",
"c	c #FFFFFF",
"d	c #E11E17",
"e	c #F6201A",
"f	c #FFA29B",
"g	c #FC211B",
"h	c #F7221B",
"i	c #F57470",
"j	c #FFE8E7",
"k	c #FF2E24",
"l	c #D91311",
"m	c #940D0B",
"n	c #8C0C0B",
"o	c #4E0706",
"p	c #FF1915",
"q	c #FF1714",
"r	c #5B0807",
"s	c #970D0B",
"t	c #F41613",
"u	c #A80F0D",
"v	c #E41412",
".+++++++++++++++++++++++++++++++++++++++++++++++++++++++++      ",
"+@@@@@@@@@@@@@@@@@@@@@@@@@@@@@@@@@@@@@@@@@@@@@@@@@@@@@@@@@#     ",
"+@@@@@@@@@@@@@@@@@@@@@@@@@@@@@@@@@@@@@@@@@@@@@@@@@@@@@@@@@#$    ",
"+@@@@@@@@@@@@@@@@@@@@@@@@@@@@@@@@@@@@@@@@@@@@@@@@@@@@@@@@@#$%   ",
"+@@@@@@@@@@@@@@@@@@@@@@@@@@@@@@@@@@@@@@@@@@@@@@@@@@@@@@@@@#$%&  ",
"+@@@@@@@@@@@@@@@@@@@@@@@@@@@@@@@@@@@@@@@@@@@@@@@@@@@@@@@@@#$%&* ",
"+@@@@================@@@@@@@@@@@@@@@@@@@@@@@@@@@@@@@@@@@@@#$%&*-",
"+@@@@================@@@@@@@@@@@@@@@@@@@@@@@@@@@@@@@@@@@@@#$%&*-",
"+@@@@================@@@@@@@@@@@@@@@@@@@@@@@@@@@@@@@@@@@@@#$%&*-",
"+@@@@================@@@@@@@@@@@@@@@@@@@@;>,')!~{@@@@@@@@@#$%&*-",
"+@@@@================@@@@@@@@@@@@@@@@@@@@>]^/(_:<@@@@@@@@@#$%&*-",
"+@@@@================@@@@@@@@@@@@@@@@@@@@[^}|1234@@@@@@@@@#$%&*-",
"+@@@@================@@@@@@@@@@@@@@@@@@@@5/|67890@@@@@@@@@#$%&*-",
"+@@@@================@@@@@@@@@@@@@@@@@@@@a(17bccc@@@@@@@@@#$%&*-",
"+@@@@================@@@@@@@@@@@@@@@@@@@@d_28cccc@@@@@@@@@#$%&*-",
"+@@@@================@@@@@@@@@@@@@@@@@@@@e:39cccf@@@@@@@@@#$%&*-",
"+@@@@================@@@@@@@@@@@@@@@@@@@@ghijccfk@@@@@@@@@#$%&*-",
"+@@@@================@@@@@@@@@@@@@@@@@@@@@@@@@@@@@@@@@@@@@#$%&*-",
"+@@@@@@@@@@@@@@@@@@@@@@@@@@@@@@@@@@@@@@@@@@@@@@@@@@@@@@@@@#$%&*-",
"+@@@@@@@@@@@@@@@@@@@@@@@@@@@@@@@@@@@@@@@@@@@@@@@@@@@@@@@@@#$%&*-",
"+@@@@@@@@@@@@@@@@@@@@@@@@@@@@@@@@@@@@@@@@@@@@@@@@@@@@@@@@@#$%&*-",
"+@@@@@@@@@@@@@@@@@@@@@@@@@@@@@@@@@@@@@@@@@@@@@@@@@@@@@@@@@#$%&*-",
"+@@@@@===============@@@@@@@@@@@@@@@@@@===============@@@@#$%&*-",
"+@@@@================@@@@@@@@@@@@@@@@@@===============@@@@#$%&*-",
"+@@@@================@@@@@@@@@@@@@@@@@@===============@@@@#$%&*-",
"+@@@@================@@@@;>,')!~{@@@@@@===============@@@@#$%&*-",
"+@@@@================@@@@>]^/(_:<@@@@@@===============@@@@#$%&*-",
"+@@@@================@@@@[^}|1234@@@@@@===============@@@@#$%&*-",
"+@@@@================@@@@5/|67890@@@@@@===============@@@@#$%&*-",
"+@@@@================@@@@a(17bccc@@@@@@===============@@@@#$%&*-",
"+@@@@================@@@@d_28cccc@@@@@@===============@@@@#$%&*-",
"+@@@@================@@@@e:39cccf@@@@@@===============@@@@#$%&*-",
"+@@@@================@@@@ghijccfk@@@@@@===============@@@@#$%&*-",
"+@@@@================@@@@@@@@@@@@@@@@@@===============@@@@#$%&*-",
"+@@@@================@@@@@@@@@@@@@@@@@@===============@@@@#$%&*-",
"+@@@@@@@@@@@@@@@@@@@@@@@@@@@@@@@@@@@@@@===============@@@@#$%&*-",
"+@@@@@@@@@@@@@@@@@@@@@@@@@@@@@@@@@@@@@@===============@@@@#$%&*-",
"+@@@@@@@@@@@@@@@@@@@@@@@@@@@@@@@@@@@@@@@@@@@@@@@@@@@@@@@@@#$%&*-",
"+@@@@@@@@@@@@@@@@@@@@@@@@@@@@@@@@@@@@@@@@@@@@@@@@@@@@@@@@@#$%&*-",
"+@@@@@@@@@@@@@@@@@@@@@@@@@@@@@@@@@@@@@@===============@@@@#$%&*-",
"+@@@@@@@@@@@@@@@@@@@@@@@@@@@@@@@@@@@@@@===============@@@@#$%&*-",
"+@@@@@@@@;>,')!~{@@@@@@@@@@@@@@@@@@@@@@===============@@@@#$%&*-",
"+@@@@@@@@>]^/(_:<@@@@@@@@@@@@@@@@@@@@@@===============@@@@#$%&*-",
"+@@@@@@@@[^}|1234@@@@@@@@@@@@@@@@@@@@@@===============@@@@#$%&*-",
"+@@@@@@@@5/|67890@@@@@@@@@@@@@@@@@@@@@@===============@@@@#$%&*-",
"+@@@@@@@@a(17bccc@@@@@@@@@@@@@@@@@@@@@@===============@@@@#$%&*-",
"+@@@@@@@@d_28cccc@@@@@@@@@@@@@@@@@@@@@@===============@@@@#$%&*-",
"+@@@@@@@@e:39cccf@@@@@@@@@@@@@@@@@@@@@@===============@@@@#$%&*-",
"+@@@@@@@@ghijccfk@@@@@@@@@@@@@@@@@@@@@@===============@@@@#$%&*-",
"+@@@@@@@@@@@@@@@@@@@@@@@@@@@@@@@@@@@@@@===============@@@@#$%&*-",
"+@@@@@@@@@@@@@@@@@@@@@@@@@@@@@@@@@@@@@@===============@@@@#$%&*-",
"+@@@@@@@@@@@@@@@@@@@@@@@@@@@@@@@@@@@@@@===============@@@@#$%&*-",
"+@@@@@@@@@@@@@@@@@@@@@@@@@@@@@@@@@@@@@@===============@@@@#$%&*-",
"+@@@@@@@@@@@@@@@@@@@@@@@@@@@@@@@@@@@@@@===============@@@@#$%&*-",
"+@@@@@@@@@@@@@@@@@@@@@@@@@@@@@@@@@@@@@@@@@@@@@@@@@@@@@@@@@#$%&*-",
"+@@@@@@@@@@@@@@@@@@@@@@@@@@@@@@@@@@@@@@@@@@@@@@@@@@@@@@@@@#$%&*-",
"+@@@@@@@@@@@@@@@@@@@@@@@@@@@@@@@@@@@@@@@@@@@@@@@@@@@@@@@@@#$%&*-",
"+@@@@@@@@@@@@@@@@@@@@@@@@@@@@@@@@@@@@@@@@@@@@@@@@@@@@@@@@@#$%&*-",
" #########################################################lm%&*+",
"  $$$$$$$$$$$$$$$$$$$$$$$$$$$$$$$$$$$$$$$$$$$$$$$$$$$$$$$$mno&*p",
"   %%%%%%%%%%%%%%%%%%%%%%%%%%%%%%%%%%%%%%%%%%%%%%%%%%%%%%%%o%o*q",
"    &&&&&&&&&&&&&&&&&&&&&&&&&&&&&&&&&&&&&&&&&&&&&&&&&&&&&&&&orst",
"     ********************************************************suv",
"      ----------------------------------------------------+pqtv."};
