/* XPM */
static const char * gnome_dice_6_xpm[] = {
"64 64 256 2",
"  	c None",
". 	c #020202",
"+ 	c #928256",
"@ 	c #602920",
"# 	c #8F3E34",
"$ 	c #935C4E",
"% 	c #D1C2BD",
"& 	c #111616",
"* 	c #C6BA83",
"= 	c #62563A",
"- 	c #B15C4C",
"; 	c #D5B289",
"> 	c #272E2A",
", 	c #5E5032",
"' 	c #B26656",
") 	c #AA9662",
"! 	c #261612",
"~ 	c #803630",
"{ 	c #B2A676",
"] 	c #AF4A3E",
"^ 	c #B2766A",
"/ 	c #3C1A14",
"( 	c #C19E72",
"_ 	c #653A31",
": 	c #BA847C",
"< 	c #24100C",
"[ 	c #4E302C",
"} 	c #783626",
"| 	c #8E5347",
"1 	c #C8735E",
"2 	c #DED2A9",
"3 	c #EAB696",
"4 	c #A7463B",
"5 	c #36423E",
"6 	c #C6977D",
"7 	c #6A2A26",
"8 	c #92765E",
"9 	c #8A4B41",
"0 	c #441C1A",
"a 	c #1B0C09",
"b 	c #CD7B68",
"c 	c #864F42",
"d 	c #3D2E23",
"e 	c #D2A296",
"f 	c #C46A58",
"g 	c #C6857A",
"h 	c #CABAB6",
"i 	c #4A3F36",
"j 	c #984136",
"k 	c #EED6AF",
"l 	c #3F3220",
"m 	c #A75245",
"n 	c #4D1F1F",
"o 	c #C68E82",
"p 	c #64332B",
"q 	c #6A362E",
"r 	c #AA705D",
"s 	c #8A5A4E",
"t 	c #D57A65",
"u 	c #130807",
"v 	c #CCB7B2",
"w 	c #C35D4F",
"x 	c #9A5E52",
"y 	c #994E45",
"z 	c #CD857A",
"A 	c #6D3222",
"B 	c #ECDAAF",
"C 	c #7E463A",
"D 	c #AF4E44",
"E 	c #4A2A26",
"F 	c #292A27",
"G 	c #D28A82",
"H 	c #D1725F",
"I 	c #443625",
"J 	c #5E2E29",
"K 	c #A29263",
"L 	c #914D3E",
"M 	c #724E3B",
"N 	c #BEB2AE",
"O 	c #D47E66",
"P 	c #202723",
"Q 	c #2D3231",
"R 	c #96463B",
"S 	c #6C3F34",
"T 	c #0C1010",
"U 	c #AA765D",
"V 	c #C99E97",
"W 	c #BB5449",
"X 	c #A25348",
"Y 	c #CB6959",
"Z 	c #804238",
"` 	c #D4ACA6",
" .	c #53251D",
"..	c #524A2E",
"+.	c #865646",
"@.	c #3D362F",
"#.	c #AA675A",
"$.	c #0E0605",
"%.	c #5F262C",
"&.	c #D9826D",
"*.	c #C6BA96",
"=.	c #A2483D",
"-.	c #DA8671",
";.	c #BE5B4E",
">.	c #EEE2AE",
",.	c #C8A49E",
"'.	c #E6D2CE",
").	c #2A2620",
"!.	c #B15345",
"~.	c #8A3D33",
"{.	c #A95A4D",
"].	c #DE7E6B",
"^.	c #722E35",
"/.	c #662632",
"(.	c #793A31",
"_.	c #E2B6AE",
":.	c #90463C",
"<.	c #432820",
"[.	c #363E36",
"}.	c #726441",
"|.	c #CD6E5D",
"1.	c #6A2E22",
"2.	c #CEBABA",
"3.	c #090A0A",
"4.	c #DA7E66",
"5.	c #B46255",
"6.	c #D67260",
"7.	c #A84A3F",
"8.	c #333631",
"9.	c #522329",
"0.	c #CB9993",
"a.	c #AE6E62",
"b.	c #EAD6D6",
"c.	c #803B2C",
"d.	c #B27A72",
"e.	c #723231",
"f.	c #9C463B",
"g.	c #0A0603",
"h.	c #D18F84",
"i.	c #6B2E28",
"j.	c #3A2620",
"k.	c #453C26",
"l.	c #3C3A34",
"m.	c #5E2A2B",
"n.	c #DE7A6A",
"o.	c #1E2222",
"p.	c #726A4A",
"q.	c #803C38",
"r.	c #DE8270",
"s.	c #EEE2BD",
"t.	c #A6766A",
"u.	c #9E5E56",
"v.	c #D6BAB6",
"w.	c #522A24",
"x.	c #DA9E92",
"y.	c #2E1211",
"z.	c #57222B",
"A.	c #DCC4BE",
"B.	c #1C1616",
"C.	c #DA7A69",
"D.	c #463E36",
"E.	c #B85B4D",
"F.	c #9A5649",
"G.	c #E6BEBA",
"H.	c #E2AEA6",
"I.	c #773232",
"J.	c #464239",
"K.	c #A2423A",
"L.	c #6B322C",
"M.	c #B26E62",
"N.	c #B25550",
"O.	c #783633",
"P.	c #5A302A",
"Q.	c #662E22",
"R.	c #E2CAC6",
"S.	c #6E665A",
"T.	c #D6968A",
"U.	c #DC907C",
"V.	c #743E36",
"W.	c #BF7464",
"X.	c #424A44",
"Y.	c #6A2E30",
"Z.	c #D26957",
"`.	c #A84E42",
" +	c #BC6756",
".+	c #8A4236",
"++	c #2E1E18",
"@+	c #62524A",
"#+	c #D6B2AC",
"$+	c #E0A48D",
"%+	c #F6E6BE",
"&+	c #C2B68E",
"*+	c #4A2626",
"=+	c #622E26",
"-+	c #9C4A40",
";+	c #592628",
">+	c #F6DAB2",
",+	c #D07664",
"'+	c #BF7B70",
")+	c #563A32",
"!+	c #3D3E38",
"~+	c #D67A6A",
"{+	c #DA8272",
"]+	c #363A36",
"^+	c #D26E5C",
"/+	c #B65447",
"(+	c #C56251",
"_+	c #A04E43",
":+	c #7A3F33",
"<+	c #C08C82",
"[+	c #E9BDA0",
"}+	c #463232",
"|+	c #2F2E28",
"1+	c #592A22",
"2+	c #D69E92",
"3+	c #904238",
"4+	c #955246",
"5+	c #DB8A76",
"6+	c #BC6E60",
"7+	c #6E2E32",
"8+	c #C97367",
"9+	c #9E4239",
"0+	c #CA7E74",
"a+	c #592A2A",
"b+	c #BE6256",
"c+	c #D77664",
"d+	c #D67E6D",
"e+	c #863A2E",
"f+	c #A96155",
"g+	c #A9554D",
"h+	c #060303",
"i+	c #B64E44",
"j+	c #622A2C",
"k+	c #652E2D",
"l+	c #863D37",
"m+	c #3C1F1B",
"n+	c #662A2F",
"o+	c #1C1E1E",
"p+	c #462E26",
"q+	c #56302E",
"r+	c #70362C",
"s+	c #33322D",
"t+	c #301713",
"u+	c #93564A",
"v+	c #6C2A33",
"w+	c #DA8676",
"x+	c #DA7E6D",
"y+	c #6D3233",
"z+	c #3F433E",
"A+	c #503F35",
"B+	c #160E0E",
"C+	c #964A3D",
"D+	c #89463E",
"E+	c #C9ABA5",
"F+	c #E1BEB8",
"G+	c #927E56",
"                                                                                                                                ",
"                                                                                                                                ",
"                                                                                                                                ",
"                                                                                                                                ",
"                                                                                                                                ",
"                                                                                                                                ",
"                                                                                                                                ",
"                                                  . . . . . . . . . . .                                                         ",
"                                            . . 3.++9 4+9 4+4+9 :+:+V.J m+t+a .                                                 ",
"                                      . . B.B.S L - '  +W.W.W.6+6+' g+X X -+-+3+ .y..                                           ",
"                                  . < t+V.4+u+f t C.-.-.&.&.-.-.&.&.C.6.f w ;.!.7.# @ u .                                       ",
"                                u t+C X 5. +1 U ( ; $+&.&.4.C.~+x+x+d+x+].t Y b+E.!.R # 0 g..                                   ",
"                              3.@++._+E. +H M }.K * >.k -.d+x+c+~+t t d+&.&.C.c+Y w N.f.e+e+r+h+.                               ",
"                            g.S.u+g+E.|.C.#.I ..) &+k %+3 x+~+,+r ( ; $+5+-.&.&.O ,+(+/+/+`.-+(.A .                             ",
"                          . J.x f+- |.t d+x I , G+{ 2 s.[+O 8+M }.K * B >+U.-.-.-.-.O Y ;./+E.X (.c.g.                          ",
"                        . (.t.^  +Y t 4.4.b d k.}.K &+*.o -.f+I , ) * B %+[+5+b r ( ; $+^+w E.b+g+:+c.t+                        ",
"                      .  .4+'+W.|.d+-.-.&.4.u+I .., p.8 W.,+u+l , G+{ 2 s.[+b M }.K &+>.>+6./+- E.y C+:+a                       ",
"                      . L a.<+W.,+&.&.t O &.&.1 | c f+b ,+~+1 d k.}.K &+*.o f+I , ) * k %+3 ;.`.- u.D+L :+g.                    ",
"                    . $ | <+G W.t &.O x+&.&.r.&.,+t ,+~+t ~+,+| I .., p.8  +u+l , G+{ 2 >.[+Z.N.`.{.4+L Z *+.                   ",
"                    B+L #.0.g |.,+t x+&.{+-.{+~+t ~+~+~+~+C.C.t 1 u+c f+,+c+H j.k.}.K &+&+6 c+E.`.g+x L 9  .3.                  ",
"                  . j.u+<+` 6+^+C.d+&.-.w+&.d+~+~+~+d+d+~+~+c+~+d+&.0+&.d+t t u+I .., p.8 W.O Y !.R u+y -+k+B+                  ",
"                  $.q u.V H.f 6.t &.&.w+{+d+c+~+d+d+x+C.~+~+~+~+d+d+&.~+C.c+c+C.,+$ +.#.b O &.,+- R y 3+~.^.y..                 ",
"                . < D+r 0.x.Y H t 8+U ( ; $+{+w+{+d+d+x+~+~+~+d+x+x+{+d+x+C.C.x+r.r.d+d+O O O 1  +R j 3+q.7 *+g.                ",
"                . z.u.: ,.T.|.H |.M }.K &+s.k U.5+x+d+{+w+d+x+x+&.-.&.{+~+~+C.].r.r.].d+~+O t 1 f+=.# ~.S Q.m+.                 ",
"                u # M.0.E+2+^+^+{.k., ) &+B %+[+{+d+b r ( ; $+d+d+w+5+-.{+d+d+].r.w+].x+~+t ,+H !.f.e+I.q+P.t+.                 ",
"              . 1.R '+` v 2+Z.Y 4+l , + { 2 s.[+{+b M }.K * B >+w+{+d+~+~+~+~+~+r.r.{+C.c+c+1 Y !.# I.%.I w.< .                 ",
"              . i._+'+` % #+^+Z.|.d k.}.K &+*.6 w+f+I , K * k %+[+~+~+~+~+~+~+~+r.].x+C.t ,+b b+7.e+7 0 d <.a .                 ",
"              . 1+X '+E+% A.0+Z.,+| k...= S.8 W.z x l , + { 2 s.[+~+~+b U ( ; $+5+C.C.].4.b 1 E.9+e+%.n s+! < .                 ",
"              $.0 {.z E+h F+0.Z.^+t 1 u+c #.d+x+x+b d k.}.K &+&+o t ~+M }.K * s.>+5+x+].O 1  +!.# I.9.P.8.)./ .                 ",
"              $.L.- g E+v N [+G Z.,+t O O &.w+w+{+{+s k..., S.8 6+~+ +k., ) &+k %+[+].-.b (+W K.e+/.*+A+8.|+++.                 ",
"              a O.- 0+,.% N A.F+O Z.6.t t d+{+5+5+-.{+b $ c #.&.,+~+' l , + { 2 s.[+].-.1 (+`.4 e+@ [ A+]+s+).3.                ",
"              a .+5.W.V A.% 2.'.#+,+^+t t t x+x+-.-.-.{+G w+&.d+d+~+b d k.}.K &+*.6 &.,+b+m ] j I.E k.J.Q Q P .                 ",
"              < :.E.6+o E+v v.'.b._.G 6.c+O 4.C.x+r.-.-.-.&.w+w+G {+-.u+I .., }.8 W.-.w `.] 4 } @ p+D.l.8.s+& .                 ",
"              y.:.g+E.M.d.0.` ` A.R.G.` G d+,+c+6.c+4.4.d+&.-.5+-.-.&.d+c+4+c ' O &.(+!.] `.:.e.<.l.J.l.8.|+T                   ",
"              y.f.:.C+D+C+N.N.g+f+^ 0.` #+` h.z Y Y Y ^+,+t &.&.&.O x+x+d+4.t H (+E.!.] D !.-+p d l.z+l.]+8.T                   ",
"              t+:.j R j 7.`._+=.`.m N.' W.z G G f W W w (+Y |.H H H ,+H Z. +/+W /+i+i+/+!.m :.}+]+!+]+!+8.|+.                   ",
"              y.c.9+`.f.-+-+C+:.f.:.3+C+y m X {.{.!.!./+W W E.W w w w E.W W W D W W W /+N.=.q.j.l.z+]+l.8.P .                   ",
"              . I.~.f.f.3+.+l+O.7+e.(.(.O.c.q.3+=.X `.`.`.m 7.`.7.!./+D D ] ] i+i+/+!.!.N.y S ]+J.!+5 z+@..                     ",
"              . @ ~..+R q.O.Y.1+/.v+^.O.I.^.7+=+n+r+l+-+-+-+C+.+j ] ] 4 ] D 7.D /+N.m N.D .+)+l.J.!+z+5 s+.                     ",
"                a c.A q.q.Y.y+I.I.7+7+^.e.^.7+v+^.^.y+Y.I.q.e+3+R j j 4 ] 4 K.=.=.!.`.] 7.Z i l.J.z+z+@.P .                     ",
"                g.c.p (.r+e.O.y+7+^.n+v+Y.v+v+v+^.^.v+y+O.I.I.7+I.~.f.4 j K.K.=.9+D `.] -+S J.l.!+z+z+8..                       ",
"                . ~ 1.p y+e.I.I.^.^.^.k+j+7+/.v+/.v+v+^.Y.k+L.~ O.i.A ~.-+-+9+K.] 4 4 7.:.A+D.!+8.z+]+F .                       ",
"                  < c.9.q y+Y.^.I.^.v+I.n+a+v+^./.^./.v+n+j+=+Y.k+r+i.p c.C+_+# ] 4 9+f.Z A+i ]+8.]+8.&                         ",
"                  . ~.@ p q ^.Y.v+v+v+Y.y+n+n+v+v+/.z.z./.k+=+=+L.7+Y.%.%.e..+C+~.7.-+f.V.A+]+> Q [.Q .                         ",
"                    B+c.7 (.k+L.k+j+m.7+k+Y.^.7+v+v+z.z.%./.n+n+=+j+Y./.%.z.y+9 :+j 7.f.S )+8.> X.5 o+                          ",
"                      t+(.r+p Q.j+a+n+j+7 i.L.n+n+n+n+z.z.%.%.n+/.Y.v+n+/.v+%.O.D+# K.:.q !+> ]+z+Q .                           ",
"                        $.1.@ *+Q.m.@ k+Y.Y.L.k+n+j+n+7+%.%.z.;+z.z.v+n+v+v+/.Y.q..+# .+_ @.P ]+Q o+                            ",
"                          . @ @  .=+7+y+j+k+k+L.k+%.j+%.m.z.n 9.;+z.9.m.v+v+/./.r+l+:+} p d F > F g.                            ",
"                            . a @ 1+1.i.i.j+=+p L.Y.j+m.;+;+n n 0 z.z.j+7+Y.m.;+q (.V.~ @ [ ).> &                               ",
"                                h+/ %.@ m.@ =+L.p k+p a+m.;+;+9.9.9.;+%.y+k+;+a+q V.:+} 1+p+o.&                                 ",
"                                    $.n 1+ .@ ;+;+m.a+a+J k+a+m.;+9.a+q+a+w.q+J V.S p  .y.u h+                                  ",
"                                        $.a w.n  .n z.%.;+;+;+w.a+E a+Y.P.p p _ V.} / $.g.g.                                    ",
"                                            g.$.d <.m+0 n n n 9.;+n+Y.r+y+q P.r+A / h+. .                                       ",
"                                                  . . . . . . . . . . . . . . . . . . .                                         ",
"                                                          . . . . . . . . . . . . .                                             ",
"                                                                                                                                ",
"                                                                                                                                ",
"                                                                                                                                ",
"                                                                                                                                ",
"                                                                                                                                ",
"                                                                                                                                ",
"                                                                                                                                ",
"                                                                                                                                ",
"                                                                                                                                "};
