/* XPM */
static const char * gnome_dice_3_xpm[] = {
"64 64 256 2",
"  	c None",
". 	c #020202",
"+ 	c #57222B",
"@ 	c #928256",
"# 	c #8C3D34",
"$ 	c #8A5A4E",
"% 	c #D2C2BC",
"& 	c #262E2A",
"* 	c #C6B983",
"= 	c #B4564B",
"- 	c #4A1E1E",
"; 	c #605436",
"> 	c #B36356",
", 	c #D2B086",
"' 	c #331813",
") 	c #7B352B",
"! 	c #B2A676",
"~ 	c #B17165",
"{ 	c #AF4A3E",
"] 	c #BA827A",
"^ 	c #6D4036",
"/ 	c #1A2622",
"( 	c #C29E72",
"_ 	c #6E2A33",
": 	c #261410",
"< 	c #C57160",
"[ 	c #A7463B",
"} 	c #C68276",
"| 	c #C27869",
"1 	c #92765E",
"2 	c #3D423E",
"3 	c #210F0B",
"4 	c #BE9A6E",
"5 	c #563A32",
"6 	c #4C2E29",
"7 	c #602920",
"8 	c #8F5042",
"9 	c #DED2AA",
"0 	c #0E1616",
"a 	c #E9BD9F",
"b 	c #943E34",
"c 	c #CE7663",
"d 	c #190C09",
"e 	c #BF6453",
"f 	c #C28E82",
"g 	c #313632",
"h 	c #5E2E1E",
"i 	c #EDD6B0",
"j 	c #C2B68E",
"k 	c #D07B64",
"l 	c #9A584A",
"m 	c #7D4339",
"n 	c #D6826F",
"o 	c #726441",
"p 	c #C9A9A4",
"q 	c #AA6C5F",
"r 	c #D28A82",
"s 	c #6F3328",
"t 	c #E2B6AE",
"u 	c #120807",
"v 	c #A2423A",
"w 	c #D67A62",
"x 	c #865446",
"y 	c #32312C",
"z 	c #C76251",
"A 	c #4B322F",
"B 	c #6A2A32",
"C 	c #BC564B",
"D 	c #954A3D",
"E 	c #5E4E32",
"F 	c #965147",
"G 	c #58302C",
"H 	c #423622",
"I 	c #CA867A",
"J 	c #422A22",
"K 	c #CC705D",
"L 	c #C6BA96",
"M 	c #A84E42",
"N 	c #D67E66",
"O 	c #8D4237",
"P 	c #0C1010",
"Q 	c #7A3C2E",
"R 	c #F2DAB2",
"S 	c #A2564E",
"T 	c #514831",
"U 	c #692F22",
"V 	c #BB5248",
"W 	c #0E0605",
"X 	c #5F262C",
"Y 	c #AA6656",
"Z 	c #A97762",
"` 	c #46261E",
" .	c #BEB2AE",
"..	c #9E453B",
"+.	c #DA9E8F",
"@.	c #3D261F",
"#.	c #572620",
"$.	c #DB826A",
"%.	c #D6B28A",
"&.	c #DEA68E",
"*.	c #AF4E44",
"=.	c #463626",
"-.	c #DB7E66",
";.	c #CA9F97",
">.	c #A86255",
",.	c #BA867E",
"'.	c #662632",
").	c #CBB8B4",
"!.	c #B97A6F",
"~.	c #DEC6C2",
"{.	c #92443B",
"].	c #B35A4B",
"^.	c #863B33",
"/.	c #D48673",
"(.	c #713232",
"_.	c #090A0A",
":.	c #D36957",
"<.	c #C68E82",
"[.	c #3F1A15",
"}.	c #3E301E",
"|.	c #373A36",
"1.	c #6A2E26",
"2.	c #D26E5C",
"3.	c #1E1E1E",
"4.	c #9A4E44",
"5.	c #724E3A",
"6.	c #763A32",
"7.	c #0A0603",
"8.	c #EAD6D6",
"9.	c #C69981",
"0.	c #A29263",
"a.	c #BB6E5F",
"b.	c #D57662",
"c.	c #5E2A2B",
"d.	c #69322D",
"e.	c #DEB0AA",
"f.	c #CA6656",
"g.	c #45433B",
"h.	c #C15E4F",
"i.	c #AA9662",
"j.	c #4F2A25",
"k.	c #763235",
"l.	c #7C3C35",
"m.	c #523E35",
"n.	c #DA866E",
"o.	c #CA8E86",
"p.	c #864E3E",
"q.	c #67382E",
"r.	c #984236",
"s.	c #592629",
"t.	c #2B2923",
"u.	c #423A26",
"v.	c #9E4A3F",
"w.	c #724A3A",
"x.	c #DA826E",
"y.	c #E5CFCB",
"z.	c #8A4A42",
"A.	c #B65145",
"B.	c #A55E53",
"C.	c #CAAEA6",
"D.	c #DE7A6A",
"E.	c #2A1E16",
"F.	c #D4988E",
"G.	c #4A3E35",
"H.	c #4A2626",
"I.	c #D5AAA6",
"J.	c #8E6252",
"K.	c #6E2E2A",
"L.	c #6E665A",
"M.	c #C26A5A",
"N.	c #DA7E6A",
"O.	c #E6BEBA",
"P.	c #DA7A69",
"Q.	c #DEC2BC",
"R.	c #EEE2AE",
"S.	c #BD7464",
"T.	c #42362E",
"U.	c #B15245",
"V.	c #D47260",
"W.	c #DE8271",
"X.	c #C47E76",
"Y.	c #424A44",
"Z.	c #97463B",
"`.	c #AA5250",
" +	c #A2483D",
".+	c #38302B",
"++	c #373630",
"@+	c #823C37",
"#+	c #9A5E53",
"$+	c #726A4A",
"%+	c #592A2A",
"&+	c #D58F80",
"*+	c #E2AA92",
"=+	c #662E2D",
"-+	c #7B3536",
";+	c #F2E4BD",
">+	c #743E36",
",+	c #D4BAB4",
"'+	c #A15044",
")+	c #D67E6D",
"!+	c #A75245",
"~+	c #3F3C35",
"{+	c #DA8272",
"]+	c #C89894",
"^+	c #84443A",
"/+	c #D07D6E",
"(+	c #6A2E30",
"_+	c #D67A68",
":+	c #62524A",
"<+	c #DA8673",
"[+	c #612E2A",
"}+	c #161818",
"|+	c #341E1A",
"1+	c #DA7661",
"2+	c #463D26",
"3+	c #927E56",
"4+	c #763329",
"5+	c #762E36",
"6+	c #DA7E6E",
"7+	c #DE8673",
"8+	c #A84A3F",
"9+	c #61322C",
"0+	c #B05250",
"a+	c #1E1616",
"b+	c #71362F",
"c+	c #52241D",
"d+	c #3F2F27",
"e+	c #060303",
"f+	c #622A2C",
"g+	c #C28A82",
"h+	c #8D463C",
"i+	c #662A2F",
"j+	c #3F1F1A",
"k+	c #D67A6E",
"l+	c #2D302C",
"m+	c #86362E",
"n+	c #B35E4E",
"o+	c #D5766A",
"p+	c #6E2E32",
"q+	c #BC5A4C",
"r+	c #393E38",
"s+	c #94574B",
"t+	c #C97764",
"u+	c #DA8A76",
"v+	c #803A2A",
"w+	c #AA584C",
"x+	c #232724",
"y+	c #763633",
"z+	c #D3AFA8",
"A+	c #9A4A41",
"B+	c #CA6A5A",
"C+	c #522328",
"D+	c #722E35",
"E+	c #2E1412",
"F+	c #E1BEB8",
"G+	c #592A22",
"                                                                                                                                ",
"                                                                                                                                ",
"                                                                                                                                ",
"                                                                                                                                ",
"                                                                                                                                ",
"                                                                                                                                ",
"                                                                                                                                ",
"                                                  . . . . . . . . . . .                                                         ",
"                                            . . _.E.z.8 z.8 F z.m l.>+[+j+E+d .                                                 ",
"                                      . . a+a+^ 8 n+> a.S.| S.S.a.> w+S '+4.v.{.c+E+.                                           ",
"                                  . : ' ^ F s+e w w $.n.$.$.$.$./.n b.b.B+h.q+= 8+b 7 u .                                       ",
"                                u ' m '+n+e B+b.N $.$.x.x.P.)+_+N.N.$.)+-.b.B+h.q+U.Z.# [.7..                                   ",
"                              _.:+x '+n+M.c w N.n.x.6+x.{+P.N.1+1+k+P.)+x.N.)+b.K h.= v.^.^.b+. .                               ",
"                            7.L.s+w+n+B+N N.x.x.x.x.x.{+x.6+k+)+)+P.n <+u+n.n )+k b.f.= A.*.D v+d..                             ",
"                          . g.#+w+].2.o+n x.{+6+6+n n n )+)+)+)+n {+<+u+&+7+n.x.n /.N B+C q+n+!+6.v+7.                          ",
"                        . 6.Z ~ M.B+)+x.)+)+x.<+n {+n.6+_+_+)+)+{+n n /.x.n Z ( , &.$.-.2.q+q+e w+l.v+E+                        ",
"                      . #.F ] S.K k n.x.)+n {+{+n )+)+)+)+k+k+k+k+)+6+n t+5.o 0.* R.i u+$.:.A.= > 4.D @+d                       ",
"                      . 8 q g+< K n.N.)+x.{+x.n k+)+)+)+k+)+_+o+o+_+)+6+>.H E i.j i ;+a x.V.h.M n+B.z.8 m 7.                    ",
"                    . J.8 g+o.t+o+n -.)+6+{+W.{+k+P.P.6+P.P.o+_+o+_+)+)+l }.E @ ! 9 R.a N.P.:.U.'+w+F z.^+` .                   ",
"                    P D q ;.X.K _+N )+n <+<+n )+6+k+)+)+t+q 4 , +.)+)+N.t+}.2+o 0.j L 9./+n w C *.S l 8 h+c+_.                  ",
"                  . @.F f z+a.2.o+)+N.<+<+6+P._+k+k+)+c 5.o 0.* R.i u+6+)+8 H T ; $+1 S._+n n B+= D F 4.A+=+d                   ",
"                  W q.#+]+e.M.2._+)+n.7+<+n k+k+6+6+P.B.H E i.* i ;+a )+P._+2.s+x Y /+n )+N n t+].Z.F h+# K.E+.                 ",
"                . 3 h+~ ]++.B+V._+)+/.7+{+)+)+/.<+)+6+l .+E 3+! 9 R.a )+_+_+1+D.6+W.W.x./+)+N t+a.r.r.O l.B ` 7.                ",
"                . + l ,.;.F.2.V.k )+n.n Z ( %.*+u+6+/+/+}.2+o 0.j L 9.)+)+k+6+{+W.W.6+)+N N b.< n+ +b # >+1.[.e+                ",
"                d O a.;.p +.2.:.b.)+t+5.o 0.* R.R u+n )+s+=.T ; L.1 !.W.{+)+P.W.W.W.W.P._+w c K ].r.m+y+A 9+E+.                 ",
"              . =+Z.| z+).;.2.:.V.-.Y H ; i.* i ;+a 6+6+_+t+s+p.Y k {+u+<+{+{+W.W.W.6+N.b.b.K B+M b 4+X =.6 3 .                 ",
"              . 1.4.| z+% z+2.:.b.n #+}.E 3+! 9 R.a n )+6+k+6+P.6+6+n <+{+n n <+W.-.P.P.P.k t+e 8+# _ [.d+` d .                 ",
"              . G+'+X.C.% Q./+:.V.N t+}.g.o 0.j j 9.{+n )+)+k+)+{+/.<+<+n {+{+<+7+D.-.-.N t+c n+r.m+X - .+E.3 .                 ",
"              W - S I p ).Q.F.f.2.N N s+u.T ; $+1 S.{+<+{+)+6+)+6+{+<+<+{+6+6+{+7+D.-.-.N < f.U.b 5+#.G y t.' .                 ",
"              W s n+} p ).).t &+:.c b.w t+s+x q k+n <+{+{+{+)+{+<+)+n <+{+n {+7+7+W.-.n.k M.= ..m+B ` G.++y |+.                 ",
"              d y+n+X.p %  .Q.F+/+:.b.w _+N.{+<+u+<+<+<+<+{+{+{+{+6+k+)+{+{+{+6+W.7+7+n.K z M { m+7 6 m.|.y x+_.                ",
"              3 @+> | ]+~.% ).y.t c :.b.w _+N.{+7+<+{+{+<+<+{+{+{+6+6+6+6+{+{+6+-.n.n.t+e M { b ) j.G.g.l+l+/ .                 ",
"              : r.].a.<.p ).,+y.8.F+r V.V._+_+P.N.n.<+<+<+/.<+<+<+<+<+6+k+k+N.)+n.-.V.h.M 8+..) G d+~+~+g .+0 .                 ",
"              E+{.'+h.q !.;.I.I.~.~.O.I.&+/+w b.V.b.N.6+)+{+<+u+u+<+{+6+P.P.$.n.w b.h.*.{ M Z.4+@.~+g.|.++l+P                   ",
"              E+A+{.D h+Z.].].S >.S.]+I.e.I.&+} B+f.B+V.b.k /+n n )+)+-.N _+P.V.z q+U.*.*.!+A+9+d+~+~+r+|.++P                   ",
"              ' {.r.Z.Z.M '+ +v.M S ].> !.I &+r M.C q+q+h.f.V.V.2.V.b.2.K f.= V = A.A.V *.w+{.6 ++~+r+~+++l+.                   ",
"              E+v+r. +Z. +A+{.Z.Z.{.h+h+D '+!+].w+*.0+C V C q+q+h.h.h.q+C C C A.A.V A.C = v.l..+|.g.r+|.++x+.                   ",
"              . 4+#  +Z.O O O -+D+(.-+l.-+@+@+O '+'+!+M !+M 8+ +8+*.A.{ 8+[ { { V V = 0+= A+^ ++2+r+2 ~+++.                     ",
"              . 7 # O Z.l.(.d.s.'.K.D+-+k.(.p+f+=+k.@+..'+A+D O Z.{ 8+{ { { { *.= U.w+*.*.O 5 |.g.r+2 2 y .                     ",
"                3 @+1.@+l.(.(+y+k.p+D+(.k.p+_ _ D+D+(.(.(.v+^.{.r.r.r.[ { 8+[  +v.0+M *.8+m G.~+g.2 Y.|.x+.                     ",
"                7.v+d.6.(.(.-+(.p+D+i+B B p+_ _ _ 5+_ (.-+k.D+K.) # Z...r.v v v ..{ 8+*.v.^ G.~+r+2 2 |..                       ",
"                . Q U 9+(.(.(.D+D+D+D+i+f+(+'._ '._ _ p+=+=+(.l.k.K.s # v.A+r.[ { 8+8+8+h+m.G.r+g 2 |.x+.                       ",
"                  3 v+c+q.(.p+D+(._ (+k.i+%+_ 5+_ _ '._ B h f+d.=+k.1.U v+D A+# 8+[ v  +l.m.G.g y |.g 0                         ",
"                  . O h d.d.s =+_ p+B (+D+i+c.B _ + + + f+B =+f+d.(+(+X X k.^+4.# [ ..r.w.m.|.y g |.l+.                         ",
"                    d v+U 6.(+d.i+i+f+d.=+1.p+p+p+_ + + + i+i+i+=+[+=+X X + p+h+m r.8+..^ 5 g & Y.2 3.                          ",
"                      E+4+y+9+1.[+%+i+i+(+(+d.=+i+i+i++ X X c.i+X _ B B '.B f+6.^+# [ {.q.r+& g Y.l+.                           ",
"                        W U #.c+[+7 s.=+(+(+(+=+i+f+=+B X X + X s.X B B _ '.'.p+l.@+b O q.T.x+g g 3.                            ",
"                          . h 7 #.[+s K.f+=+d.d.=+X X f+X C+C+C++ - + c.B _ '.X b+^+Q y+q..+l+& x+7.                            ",
"                            . d #.7 1.1.1.f+[+d.d.(+f+c.s.+ - - - + + f+p+(+f+X d.Q >+) 7 6 t.& }+                              ",
"                                e+[.X 7 c.G+[+d.d.[+=+%+c.%+s.C+C+C+s.X (.[+s.G b+^ 6.) G+6 3.0                                 ",
"                                    W - 7 c+7 %+%+c.%+s.c.=+%+c.%+C+%+G %+j.G G >+^ d.#.: d e+                                  ",
"                                        W d H.c+- c+#.X %+s.s.%+C+j.%+=+9+=+9+q.>+Q [.e+e+e+                                    ",
"                                            e+W J @.j+[.- - - c+s.i+(+(.b+q.[+b+K.[.e+. .                                       ",
"                                                  . . . . . . . . . . . . . . . . . . .                                         ",
"                                                          . . . . . . . . . . . . .                                             ",
"                                                                                                                                ",
"                                                                                                                                ",
"                                                                                                                                ",
"                                                                                                                                ",
"                                                                                                                                ",
"                                                                                                                                ",
"                                                                                                                                ",
"                                                                                                                                ",
"                                                                                                                                "};
