/* XPM */
static const char * gnome_dice_2_xpm[] = {
"64 64 256 2",
"  	c None",
". 	c #020202",
"+ 	c #56261E",
"@ 	c #927E56",
"# 	c #B64A3E",
"$ 	c #A04239",
"% 	c #D1C2BD",
"& 	c #2D3430",
"* 	c #C6BA83",
"= 	c #5E5033",
"- 	c #441C1A",
"; 	c #8E3E35",
"> 	c #BEB2AE",
", 	c #B65E4F",
"' 	c #252C28",
") 	c #803630",
"! 	c #B2A676",
"~ 	c #331813",
"{ 	c #AC6E61",
"] 	c #BA827A",
"^ 	c #672632",
"/ 	c #C26A5A",
"( 	c #C09C72",
"_ 	c #261410",
": 	c #724E3C",
"< 	c #9E5E56",
"[ 	c #1C1E1E",
"} 	c #AA9662",
"| 	c #673A31",
"1 	c #C96B5A",
"2 	c #210F0B",
"3 	c #BE8A82",
"4 	c #726A4A",
"5 	c #C8735E",
"6 	c #A2564E",
"7 	c #4B322F",
"8 	c #885042",
"9 	c #EADAAE",
"0 	c #783626",
"a 	c #BA867E",
"b 	c #1A0C09",
"c 	c #563630",
"d 	c #111616",
"e 	c #66362E",
"f 	c #414844",
"g 	c #E8BD9E",
"h 	c #CE7E6F",
"i 	c #A7463B",
"j 	c #373A36",
"k 	c #6A3022",
"l 	c #894A40",
"m 	c #C48E82",
"n 	c #130807",
"o 	c #D1725F",
"p 	c #C2B68E",
"q 	c #D5826F",
"r 	c #592A22",
"s 	c #C6A29A",
"t 	c #DED2AA",
"u 	c #CD6556",
"v 	c #722E35",
"w 	c #422A22",
"x 	c #A65245",
"y 	c #D17662",
"z 	c #8E6252",
"A 	c #7E463A",
"B 	c #954A3D",
"C 	c #3E2E23",
"D 	c #A25246",
"E 	c #463B26",
"F 	c #CA867A",
"G 	c #726440",
"H 	c #DB7E66",
"I 	c #0C1010",
"J 	c #B7564A",
"K 	c #602A20",
"L 	c #2A2620",
"M 	c #804238",
"N 	c #C6BA96",
"O 	c #C68A82",
"P 	c #403424",
"Q 	c #D77662",
"R 	c #6E3F35",
"S 	c #915042",
"T 	c #9A4438",
"U 	c #0E0605",
"V 	c #BF786B",
"W 	c #92765E",
"X 	c #C15E4F",
"Y 	c #8E4439",
"Z 	c #E0A68E",
"` 	c #4F201A",
" .	c #A04A3F",
"..	c #DB826A",
"+.	c #6A2E26",
"@.	c #3A2E29",
"#.	c #928256",
"$.	c #E7D3D1",
"%.	c #36423E",
"&.	c #965A4B",
"*.	c #D2B286",
"=.	c #8A3D33",
"-.	c #CA928C",
";.	c #AE4A3E",
">.	c #524A2E",
",.	c #6E2E31",
"'.	c #C99D97",
").	c #3A2620",
"!.	c #D16A58",
"~.	c #5E2A2B",
"{.	c #62262C",
"].	c #D6B28A",
"^.	c #AA5249",
"/.	c #D48673",
"(.	c #090A0A",
"_.	c #423A26",
":.	c #CCB8B4",
"<.	c #722A36",
"[.	c #A84A3F",
"}.	c #E2B6AE",
"|.	c #D6766A",
"1.	c #AE7A68",
"2.	c #B2584C",
"3.	c #A96155",
"4.	c #D28A82",
"5.	c #6E2A33",
"6.	c #803B2C",
"7.	c #97564A",
"8.	c #0A0603",
"9.	c #5C2621",
"0.	c #793A31",
"a.	c #944238",
"b.	c #DABCB6",
"c.	c #BD6554",
"d.	c #DBC2BB",
"e.	c #D89E92",
"f.	c #3E1A15",
"g.	c #EFD6B1",
"h.	c #A29263",
"i.	c #523E35",
"j.	c #69322D",
"k.	c #DEB0AA",
"l.	c #502623",
"m.	c #484037",
"n.	c #803C38",
"o.	c #33322D",
"p.	c #DA8671",
"q.	c #4A2D27",
"r.	c #BE594C",
"s.	c #612E2A",
"t.	c #DA826E",
"u.	c #76322A",
"v.	c #44261E",
"w.	c #D67E66",
"x.	c #D77A66",
"y.	c #B16050",
"z.	c #DA8E76",
"A.	c #CAAEA6",
"B.	c #4A1E26",
"C.	c #783633",
"D.	c #2A1E16",
"E.	c #B66E62",
"F.	c #DA7E6A",
"G.	c #D7AAA6",
"H.	c #61332C",
"I.	c #985046",
"J.	c #743E36",
"K.	c #AC766A",
"L.	c #2D2D28",
"M.	c #C46352",
"N.	c #1A1616",
"O.	c #723226",
"P.	c #DA7A6B",
"Q.	c #A84E42",
"R.	c #DA8272",
"S.	c #95463C",
"T.	c #8A4236",
"U.	c #5B222C",
"V.	c #6E3231",
"W.	c #6E665A",
"X.	c #D67E6D",
"Y.	c #AC5252",
"Z.	c #B06656",
"`.	c #6A362E",
" +	c #D2A7A1",
".+	c #8A5A4E",
"++	c #EEE2AE",
"@+	c #662E2D",
"#+	c #AF4E44",
"$+	c #682A26",
"%+	c #DA7E6E",
"&+	c #6A2E30",
"*+	c #62524A",
"=+	c #7A3F33",
"-+	c #662A2F",
";+	c #B15245",
">+	c #341E1A",
",+	c #B65145",
"'+	c #1F2523",
")+	c #D16E5C",
"!+	c #DB8676",
"~+	c #592B2A",
"{+	c #562329",
"]+	c #3A3630",
"^+	c #DE8272",
"/+	c #522B27",
"(+	c #D07A66",
"_+	c #B95A4C",
":+	c #3F3A33",
"<+	c #1E1616",
"[+	c #863A2E",
"}+	c #4E3F36",
"|+	c #6A2A33",
"1+	c #D67260",
"2+	c #343632",
"3+	c #060303",
"4+	c #622A2C",
"5+	c #DB8A75",
"6+	c #A04E43",
"7+	c #623A2E",
"8+	c #863D37",
"9+	c #62563A",
"0+	c #B66357",
"a+	c #CA7A66",
"b+	c #C69680",
"c+	c #70362C",
"d+	c #D48F82",
"e+	c #5C262C",
"f+	c #F2E4BD",
"g+	c #393E38",
"h+	c #A0463B",
"i+	c #AA584C",
"j+	c #BE7160",
"k+	c #160E0E",
"l+	c #D6968A",
"m+	c #DE8672",
"n+	c #D3AFA8",
"o+	c #C58076",
"p+	c #89463E",
"q+	c #9A4A41",
"r+	c #BB5248",
"s+	c #9A5E53",
"t+	c #522226",
"u+	c #943E34",
"v+	c #DFC7C3",
"w+	c #3E1F1B",
"x+	c #2E1412",
"y+	c #723232",
"z+	c #C9A9A4",
"A+	c #E3BEB9",
"B+	c #3F3E37",
"C+	c #773234",
"D+	c #3F423C",
"E+	c #D29A92",
"F+	c #6A423A",
"G+	c #D67A6B",
"                                                                                                                                ",
"                                                                                                                                ",
"                                                                                                                                ",
"                                                                                                                                ",
"                                                                                                                                ",
"                                                                                                                                ",
"                                                                                                                                ",
"                                                  . . . . . . . . . . .                                                         ",
"                                            . . (.D.l S l S I.l =+=+J.s.w+x+b .                                                 ",
"                                      . . N.<+F+S , Z.E.j+j+V j+E.0+i+6 D 6+ .a.l.x+.                                           ",
"                                  . _ ~ J.S 7.c.Q P...m+5+H q m+p.X.Q o 1 , _+,+[.u+K n .                                       ",
"                                n ~ =+6+0+c.1 y q ....p...X.F.G+G+F.q t.H |.!.c._+;+T ; f.8..                                   ",
"                              (.*+.+D 2./ o P.H ....X...^+F.F.P.P.P.x.X...F.P.Q 1 , 2.h+[+[+c+3+.                               ",
"                            8.W.7.6 _+1 w.....t.t.t.%+R.q F.x.X.G+P.t.p.5+p.q q X.y u _+,+#+q+0.k .                             ",
"                          . m.s+2.y.)+x.X.q t.t.t.t.q %+X.X.P.q q q !+5+z.5+t.q ../.(+)+_+_+X D 0.6.8.                          ",
"                        . J.K.K./ 1 X.X.X.%+q R.q /.t.F.G+G+q %+R.R.q /.t.h 1.( *.Z p.x.!.r._+0+6 =+6.x+                        ",
"                      . l.I.] E.)+(+p./.X.R.p.R.%+q q X.X.G+G+G+G+X.%+q a+: G h.p 9 9 z...!.r+_+, I.B 8+k+                      ",
"                      . B { O V 5 /...H t.%+%+%+X.G+X.G+G+G+G+y |.G+h ..3.P = } * 9 f+g ..1+X Q.y.i+l S =+8.                    ",
"                    . z 8 3 4.5 x.X.x.X.t.p.R.R.P.P.F.X.X.G+P.|.|.P.G+%+&.P = @ ! t f+g F.P.!.;+6+i+S l M v..                   ",
"                    k+l { '.o+1 Q w.X.t.p.R.R.G+X.G+G+%+%+G+|.G+G+X.q w.y ).E G h.p p b+(+q P.J #+6 s+I.B l.(.                  ",
"                  . ).D m n+j+)+|.F.X.p.!+q G+G+G+X.X.G+G+G+G+G+G+%+t.X.H 7.P >.= 4 W j+G+q ..1 2.S.S I.q+@+b                   ",
"                  U `.s+'.k.1 1+X.q p.m+p.%+G+G+%+%+P.%+P.G+G+P.%+X.X.F.w.Q o 7.8 Z.q t.q w.q (+2.S.I.T.; v x+.                 ",
"                . 2 p+{ '.e.1 o x.X./.5+h { ( *.Z q G+X.X.G+X.X.R.R.R.X.G+G+P.%+R.R.R.t.X.X.(+a+c.T $ =.=+$+v.8.                ",
"                . {+< a '.l+!.)+y F.p.h : G h.* ++g.!+!+R.t.%+X.X.R.t.%+X.G+P.^+^+^+%+X.x.w.(+5 y. .u+; J.+.f.3+                ",
"                n ; E.'.z+e.o )+y H t.Z._.= } p g.f+g %+X.X.R.R.X./.5+p.R.X.P.t.^+m+%+X.x.x.o 5 2.T [+u.c H.x+.                 ",
"              . +.B V n+A. +!.!.1+w.q s+P = @ ! t f+g X.%+%+X.X.%+%+R.!+R.R.R.%+^+^+%+P.Q Q 5 1 x u+v 9.7 /+2 .                 ",
"              . +.6+V n+% n+!.!.y ....h P E G h.p p b+h X.P.P.X.R.q p.p.q R.!+R.^+%+H P.P.y y M.[.[+$+- @.).b .                 ",
"              . 9.D o+n+% d.h u 1+w.q q &._.>.= W.W V %+%+X.X.%+q R.q !+R.q R.m+^+H P.H w.a+5 2.$ ) 9.B.@.D.2 .                 ",
"              8.- 6 F z+:.A+E+u )+(+w.w.q (+s+8 Z.(+q !+R.X.X.%+R.!+!+5+R.X.q m+m+H H H w.5 / x u+u.+ c o.L f..                 ",
"              U O.y.o+z+:.:.A+d+u Q x.w.F.q /./.X.!+!+!+R.%+%+R.q X.q R.R.%+%+^+^+H H p.(+1 J i =.$+B.i.j L.>+.                 ",
"              n C.0+o+z+% > A+A+h !.1+x.P.H R.5+5+!+R./.!+R.R.!+R.R.X.%+R.R.!+%+^+m+m+/.1 M.[.i [+~./+m.j & '+(.                ",
"              2 8+y.V b+v+% :.$.}.y )+(+x.x.H t.R.p.!+m+5+!+R.%+%+%+%+X.%+!+R.%+H m+p.y c.Q.;.$ C+q.m.m.& o.'+.                 ",
"              _ a._+j+m z+:.b.$.$.A+/.o 1+w.P.H F.t.R.R./.!+!+5+!+R.!+R.Q P.H t.p.H y X Q.[.h+u.K C B+_.o.o.d .                 ",
"              _ S.6 2.E.1.'. +z+d.v+A+G.d+X.y 1+1+Q X.q F.q /.5+5+/.t.X.P.G+t...x.Q X ;+[.Q.S.O.w :+m.j 2+o.I                   ",
"              x+T S.S.Y B 2.2.i+3.V b+G.k.G.-.q 1 u !.)+1+G+h q ..X.F.F.w.w.x.o M._+# #+#+;+I.H.C B+D+g+2+2+I                   ",
"              ~ a.a.S.S.Q.Q.Q. .Q.^.i+Z.V F d+4./ _+r.X M.u )+o o 1+y o !.M._+r+,+r+;+r+;+x a.q.j :+j g+j L..                   ",
"              x+[+$ [.h+ .B S.S.S.S.a.p+I.6+D i+i+Q.;+r+J r.r.J X X X r.r.,+J ,+r+r+J r+2.6+n.@.j D+j :+2+'+.                   ",
"              . O.=. .a.Y ; 8+C.v V.0.0.) n.8+Y  .D Q.x x Q.[.[.[.#+,+#+;.[.# #+r+r+,+2.2.B | 2+m.B+D+g+j .                     ",
"              . s.=.T.S.0.C.&+~+^ |+v C.C+y+,.-+@+C.8+h+ .q+B T.T [.;.i # ;.[.#+2.i+Y.#+#+p+c :+D+B+f B+2+.                     ",
"                b 6.j.n.n.j.&+C+C+v v v C+,.5.,.<.,.,.&+y+n.[+a.S.$ u+i # [.i h+ .;+Q.#+[.A m.:+m.%.f 2+'+.                     ",
"                3+[+k 0.C+y+C.,.,.v -+|+|+,.^ <.<.v v y+C.C+y+,.u.T.q+T a.$ $ $ $ ;.;.# h+F+m.B+B+D+D+2+.                       ",
"                . 0.j.H.j.y+C+y+v v v 4+4+&+5.|+^ 5.5.,.+.@+y+) C.+.O.=. .h+$ i ;.[.[.[.Y i.m.g+& B+j ' .                       ",
"                  2 6.l.`.V.,.,.C+,.,.C+-+~+5.v ^ 5.|+5.-+4+s.+.@+y++.@+=+S.q+; [.i T  .M i.i.j & j 2+d                         ",
"                  . ; K H.`.y+&+&+5.|+&+,.-+~.5.v U.U.U.4+@+4+s.&+&+&+4+e+c+T.I.8+i h+T R i.j & 2+j & .                         ",
"                    b 6.$+0.@+&+s.4+4+V.@++.V.,.,.-+U.t+U.-+-+-+@+s.-+^ ^ U.,.p+M a.;.h+R E o.' f g+[                           ",
"                      ~ 0.O.H.@+-+~+-+4+-+&+&+-+-+^ 4+U.e+e+4+-+{.5.|+-+{.-+4+C.p+u+h+S.`.B+' j f & .                           ",
"                        U +.K l.K ~.9.&+&+j.j.@+@+4+@+|+e+e+U.e+e+e+|+|+5.^ {.&+=+n.; T.H.:+'+j & [                             ",
"                          . K K r s.V.V.4+@+@+j.@+e+{.{.4+t+t+t+t+` {+~.|+5.|+{.V.T.n.0.e C L.' ' 8.                            ",
"                            . n 9.K +.+.$+4+s.@+j.&+s.~.e+e+B.B.B.{+U.{.v &+4+e+j.J.J.) K 7 ' ' N.                              ",
"                                3+f.9.K 4+K s.`.j.s.@+~+~+e+~+t+t+B.e+~+V.~.e+~+c+J.0.0 r q.'+N.                                ",
"                                    U ` 9.+ r r ~+~.~+e+~+4+~+~.~+l.e+~+~+/+~+c | F+k {+x+n 3+                                  ",
"                                        U b l.` ` ` {+9.9.~+e+/+e+l.~+H.H.H.H.`.=+) f.3+3+3+                                    ",
"                                            3+U C v.w+f.B.B.` ` e+4+&+V.y+`.H.`.k w+3+. .                                       ",
"                                                  . . . . . . . . . . . . . . . . . . .                                         ",
"                                                          . . . . . . . . . . . . .                                             ",
"                                                                                                                                ",
"                                                                                                                                ",
"                                                                                                                                ",
"                                                                                                                                ",
"                                                                                                                                ",
"                                                                                                                                ",
"                                                                                                                                ",
"                                                                                                                                ",
"                                                                                                                                "};
