/* XPM */
static const char * gnome_dice_4_xpm[] = {
"64 64 256 2",
"  	c None",
". 	c #020202",
"+ 	c #5A2529",
"@ 	c #928256",
"# 	c #8C3D34",
"$ 	c #8E5D4E",
"% 	c #D1C2BD",
"& 	c #1C1E1E",
"* 	c #C6BA82",
"= 	c #62563A",
"- 	c #B15C4C",
"; 	c #BEB2AE",
"> 	c #B46655",
", 	c #5E5033",
"' 	c #262E2A",
") 	c #AA9662",
"! 	c #AF4A3E",
"~ 	c #7B352B",
"{ 	c #B2A676",
"] 	c #B2766A",
"^ 	c #261410",
"/ 	c #321C18",
"( 	c #C29E72",
"_ 	c #653A31",
": 	c #A7463B",
"< 	c #672632",
"[ 	c #BA847C",
"} 	c #C47362",
"| 	c #4E302C",
"1 	c #8D5347",
"2 	c #210F0B",
"3 	c #3F1A15",
"4 	c #36423E",
"5 	c #C79780",
"6 	c #DED2AA",
"7 	c #92765E",
"8 	c #C27C72",
"9 	c #E9BD9F",
"0 	c #984136",
"a 	c #1A0C09",
"b 	c #C78377",
"c 	c #3D2E24",
"d 	c #BF6654",
"e 	c #6A3022",
"f 	c #82463E",
"g 	c #111616",
"h 	c #CBB8B4",
"i 	c #C68E82",
"j 	c #461D1D",
"k 	c #373530",
"l 	c #763233",
"m 	c #D67A65",
"n 	c #4A3F36",
"o 	c #CAA6A2",
"p 	c #F4DAB2",
"q 	c #904E3E",
"r 	c #61332C",
"s 	c #130807",
"t 	c #C68A82",
"u 	c #CB725F",
"v 	c #995C4F",
"w 	c #C35D4F",
"x 	c #C96656",
"y 	c #994E45",
"z 	c #722E35",
"A 	c #7A3C2E",
"B 	c #A84E42",
"C 	c #AF4E44",
"D 	c #D5826F",
"E 	c #463232",
"F 	c #8D4A40",
"G 	c #602E27",
"H 	c #726441",
"I 	c #492724",
"J 	c #D67E69",
"K 	c #AA6B61",
"L 	c #363B37",
"M 	c #D4B286",
"N 	c #96463B",
"O 	c #A25348",
"P 	c #0C1010",
"Q 	c #A97760",
"R 	c #BB5449",
"S 	c #D2BAB2",
"T 	c #6C362D",
"U 	c #CE867E",
"V 	c #8A443A",
"W 	c #E7D3D1",
"X 	c #C99E97",
"Y 	c #D6B28A",
"Z 	c #9E5E56",
"` 	c #A29263",
" .	c #724E3B",
"..	c #0E0605",
"+.	c #A2483D",
"@.	c #5A2A22",
"#.	c #D47260",
"$.	c #BE5B4E",
"%.	c #6A2E26",
"&.	c #524A2E",
"*.	c #D16656",
"=.	c #DE7E6B",
"-.	c #422A22",
";.	c #B15345",
">.	c #6E2E31",
",.	c #804239",
"'.	c #DB826A",
").	c #6A3E34",
"!.	c #4F201A",
"~.	c #D1ACA7",
"{.	c #323A32",
"].	c #2E2822",
"^.	c #5A2A2A",
"/.	c #DA7E66",
"(.	c #EDD6AF",
"_.	c #863B33",
":.	c #090A0A",
"<.	c #B46255",
"[.	c #722A36",
"}.	c #552621",
"|.	c #423A26",
"1.	c #313632",
"2.	c #A96356",
"3.	c #D28A82",
"4.	c #72362C",
"5.	c #A9564C",
"6.	c #6E2A33",
"7.	c #9C463B",
"8.	c #D2A296",
"9.	c #0A0603",
"0.	c #E2AC9C",
"a.	c #402620",
"b.	c #CA8E86",
"c.	c #3F3320",
"d.	c #5E2A2B",
"e.	c #4A1E26",
"f.	c #DA7A6A",
"g.	c #69322D",
"h.	c #C6BA86",
"i.	c #D16A58",
"j.	c #C6A29A",
"k.	c #EEE2AE",
"l.	c #7C3C35",
"m.	c #DA9E92",
"n.	c #955246",
"o.	c #D57662",
"p.	c #463626",
"q.	c #DCC4BE",
"r.	c #B85B4D",
"s.	c #1A2622",
"t.	c #464239",
"u.	c #2F302C",
"v.	c #CD7B68",
"w.	c #A2423A",
"x.	c #DA8671",
"y.	c #6E665A",
"z.	c #B25550",
"A.	c #D4988E",
"B.	c #6E3F35",
"C.	c #D6BAB6",
"D.	c #3C3A34",
"E.	c #E6BEBA",
"F.	c #DA826E",
"G.	c #542228",
"H.	c #B46E60",
"I.	c #726A4A",
"J.	c #864E40",
"K.	c #B97A6F",
"L.	c #424A44",
"M.	c #1A1616",
"N.	c #723226",
"O.	c #904238",
"P.	c #E2CAC6",
"Q.	c #5E261E",
"R.	c #EEE2BC",
"S.	c #DA8E79",
"T.	c #C06C5D",
"U.	c #C96B5A",
"V.	c #55292B",
"W.	c #C89894",
"X.	c #763631",
"Y.	c #6E3231",
"Z.	c #AA5250",
"`.	c #D6B2AC",
" +	c #823C37",
".+	c #2F1411",
"++	c #9C4A40",
"@+	c #62524A",
"#+	c #D67A6B",
"$+	c #662E2D",
"%+	c #7B3536",
"&+	c #563A32",
"*+	c #CA7E74",
"=+	c #682A26",
"-+	c #A75245",
";+	c #3D3E38",
">+	c #90463C",
",+	c #E1A68E",
"'+	c #D67E6E",
")+	c #DA7E6D",
"!+	c #6A2E30",
"~+	c #B65447",
"{+	c #C56251",
"]+	c #A04E43",
"^+	c #602A20",
"/+	c #DE8271",
"(+	c #C08C82",
"_+	c #662A2F",
":+	c #DA7661",
"<+	c #D16E5C",
"[+	c #923E33",
"}+	c #463E36",
"|+	c #D69E92",
"1+	c #612E30",
"2+	c #DB8A76",
"3+	c #9A5649",
"4+	c #DE8673",
"5+	c #5F262C",
"6+	c #9E4239",
"7+	c #A84A3F",
"8+	c #743E35",
"9+	c #1E1616",
"0+	c #BE6256",
"a+	c #C4B892",
"b+	c #6A2A33",
"c+	c #060303",
"d+	c #BD7364",
"e+	c #B64E44",
"f+	c #A95B4F",
"g+	c #622A2C",
"h+	c #F6E6BE",
"i+	c #3F1F1A",
"j+	c #463C26",
"k+	c #DA8272",
"l+	c #56302E",
"m+	c #86362E",
"n+	c #E2B6AE",
"o+	c #DA8676",
"p+	c #D5766A",
"q+	c #3F433E",
"r+	c #462E26",
"s+	c #503F35",
"t+	c #803A2A",
"u+	c #232724",
"v+	c #160E0E",
"w+	c #964A3D",
"x+	c #542A24",
"y+	c #C9ABA5",
"z+	c #723232",
"A+	c #42342C",
"B+	c #D38F84",
"C+	c #927E56",
"D+	c #CD7663",
"E+	c #93564A",
"F+	c #E1BEB8",
"G+	c #D7ACA6",
"                                                                                                                                ",
"                                                                                                                                ",
"                                                                                                                                ",
"                                                                                                                                ",
"                                                                                                                                ",
"                                                                                                                                ",
"                                                                                                                                ",
"                                                  . . . . . . . . . . .                                                         ",
"                                            . . :./ F n.F 1 n.f ,.l.8+G i+.+a .                                                 ",
"                                      . . M.9+B.q 2.> > d+} } d+H.> f+O O ]+++O.}..+.                                           ",
"                                  . ^ / 8+n.E+T.#.m 4+x.x.'.'./+'.)+m #.T.w $.;.+.[+^+s .                                       ",
"                                s / 8+]+- d U.#.D '.D '.'.J J '+J J )+)+=.o.U.0+w ;.7.# 3 9..                                   ",
"                              :.@+$ ]+r.T.D+m D+Q ( M ,+=.)+f.:+f.#+m J F.)+f.o.U.r.z.+._._.4.. .                               ",
"                            9.y.n.5.r.U.m /.v. .H ` a+k.p o+'+'+#+)+k+x.2+x.D J J o.x ~+~+C w+t+e .                             ",
"                          . t.v f+- u f.'.F.2.p., ` * 6 h+9 #+F.D D o+2+S.2+x.D x.x.J U.R r.r.O A A ..                          ",
"                        . A Q ] d <+f.J J J v c., C+{ 6 R.9 '+'+k+k+D x.F.v.Q ( M ,+x./.<+$.w 0+5.t+A .+                        ",
"                      . }.n.[ d+U.J x.D '+'.v.c j+H ` a+a+i #+#+#+'+'+D v. .H ` * k.(.S./.*.z.- <.y w+ +a                       ",
"                      . w+K t } D+D D /.D '.'.E+j+&., H 7 d+p+p+p+#+'+D 2.p., ` * (.h+9 x.:+$.7+- f+F q ,.9.                    ",
"                    . $ 1 (+t } #+'.#+)+)+F.F.)+u E+J.2.D+#+p+#+o.#+f.'+v c.&.C+{ 6 k.9 J /.i.;.]+f+1 F ,.a..                   ",
"                    v+F K X b <+o.m J F.x.k+)+J f.#+'+#+'+#+#+#+#+'+D J u c j+H ` ; a+5 #+J f.$.C O Z q F }.s                   ",
"                  . -.n.(+G+d+<+#+F.'+x.2+D #+#+#+#+'+f.#+#+o.#+#+'+)+F.f.E+p.&., I.7 d+J D D U.;.N E+y ++1+a                   ",
"                  9.T Z X 0.U.#.m J x.x.o+)+f.'+)+'+'+#+#+#+#+#+)+)+D m J o.U.E+1 2.J D '+J J D+- N y V # z ^ .                 ",
"                . 2 f K X A.U.#.#+J x.x.o+'+'+o+o+'+)+)+#+#+)+'+D )+k+)+/.f.:+)+'.k+k+D J J J } > 7.0 O.l.%.I 9.                ",
"                . + 3+(+X A.<+u o.J *+Q ( M ,+2+2+)+'+o+x.k+'+'+)+x.x.)+#+'+)+)+/+/+)+)+J J m D+<.+.[+_.B.%.3 c+                ",
"                s O.H.X y+A.<+<+o.D+ .H ` h.k.(.2+D '+'+'+)+k+D '+k+2+o+k+'+)+F./+/+)+#+m m u U.- 6+_.~ | r .+.                 ",
"              . %.N } ~.h 8.<+i.#.2.p., ) a+(.h+9 )+)+)+)+'+'+)+)+k+D 2+D '+k+/+/+/+k+f.o.o.u U.C [+z 5+p.x+2 .                 ",
"              . %.n.d+`.% G+i.i.o.v c., C+{ 6 R.9 D D '+'+f.#+#+'+k+v.Q ( M ,+x./+=.=.f.f.m v.d 7+# 6.3 c a.a .                 ",
"              . d.O b ~.% q.D *.u v.c j+H ` a+a+W.k+k+D )+'+f.'+D v. .H ` a+k.p S.f.f.=.J v.D+- 0 m+Q.j u./ 2 .                 ",
"              c+j 5.b y+h F+A.*.<+v.1 |.&., I.7 d+k+k+o+k+D )+)+k+2.p., ) * (.h+9 =././.m T.d ;.[+N.+ l+k ]./ .                 ",
"              ..Y.- b y+h `.F+3.*.m m D+E+1 K D )+k+k+o+k+)+'+k+D v c., C+{ 6 R.9 '.=.x.v.U.R : m+< I s+{.' i+.                 ",
"              a X.- *+o % ; % E.v.i.#.m m m D 2+2+2+k+o+o+k+k+k+k+D+c j+H ` a+a+5 F.4+x.u {+B : # ^+| s+k u.u+:.                ",
"              a V <.d+X q.% S P.n+o.<+o.m m )+F.4+o+o+o+2+o+k+k+)+'+E+p.&., H 7 T.x.x.} {+-+! 0 ~ I j+t.1.u.s..                 ",
"              2 >+- T.i y+S F+W W C.2+u #.m m m f.'.k+k+o+o+o+3.2+D D D+E+1 2.J D '.o.$.B 7+: ~ G r+;+D.1.u.g .                 ",
"              .+O.5.- ] Q W.~.~.q.P.F+0.B+D o.o.o.o.J J )+D x.2+2+x.F.'+o.o.J D /.#.w ;.7+B O.z+a.D.}+D.k u.P                   ",
"              .+7.N N >+w+z.z.5.2.] W.G+G+G+B+*+U.*.<+#.#.m J D D '.)+)+J /.f.#.x r.;.! C ;.w+r c ;+;+;+D.k P                   ",
"              .+O.O.N N 7+B ]+++7+5.5.> K.U B+B+T.R R $.{+x <+#.#.#.o.u i.{+r.~+;.R e+R ;.5.>+r+k ;+L ;+k u..                   ",
"              .+_.6++.7.++++N >+0 N O.>+++]+-+- 5.Z.;.R R R R R w w w $.R ~+R e+e+R R ~+z.7+l.c D.t.L L 1.u+.                   ",
"              . N.# ++N O.V  +l.z+z %+A l. + +V ]+O B B -+-+B ]+7+;.~+C C : ! ! R R ;.z.z.w+).k }+;+4 q+k .                     ",
"              . G # V N %+%+!++ g+!+>.l l z 6.g+$+4. +7.+.++w+V 0 7+! : ! e+! ! ;.;.Z.Z.;.V s+D.t.;+q+q+u..                     ",
"                a t+%. + +g.>.X.l >.z z l >.>.6.[.z z+!+T t+_.O.N 6+0 : ! : : +.+.Z.B ! 7+,.s+D.t.q+q+k u+.                     ",
"                ..t+g.4.X.Y.%+z >.z _+b+b+z 6.6.[.z z z+%+l z >.N.# 7.7.0 w.w.+.+.! C ! +.).t.;+;+q+q+L .                       ",
"                . t+G T Y.z+z+z+z z z g+g+b+b+6.< 6.6.z $+$+4.m+l %.N.# ++++7.w.: 7+: 7+>+s+n ;+1.4 L ]..                       ",
"                  ^ t+I T Y.>.z l z >.l G + b+z < 6.< >._+d.G g.$+4.%.e t+N ]+[+! +.6+7.,.s+j+{.1.L 1.g                         ",
"                  . # ^+r T Y.$+b+!+b+!+z $+g+6.[.+ + + < b+$+g+g.!+$+d.5+z+V y _.: +.7.8+s+D.u.k L u..                         ",
"                    a t+=+A !+g._+g+g+>.$+$+Y.>.6.< G.G.+ 5+$+_+$+_+_+5+5++ >.F ,.0 7+7.B.&+1.' L.4 &                           ",
"                      .+A N.G %.g+^.$+G _+!+!+$+_+b+< + + g+5+_+5+!+b+b+< < 5+X.f # w.>+r ;+u+1.L.u..                           ",
"                        ..e + }.G ^++ %.!+g.!+$+g+g+_+b+5+5++ 5++ 5+b+_+6.b+5+>.l.,.O.O._ D.u+1.1.&                             ",
"                          . G ^+}.d.N.Y.g+$+g.g.!+d.< 5+5+G.G.e.G.!.G.d.b+6.6.5+A  +t+A r c u.' u+9.                            ",
"                            . a ^+^+$+%.=+g+G r !+g.$+d.+ G.G.e.e.G.G.g+>._+g++ g.8+A ~ =+| ].' g                               ",
"                                . 3 Q.^+d.@.$+g.r d.1+^.^.^.+ G.G.G.+ < Y.1++ ^.T 8+8+~ x+-.s.g                                 ",
"                                    ..!.Q.}.^+d.@.g+^.^.d.1+^.^.V.V.V.l+^.V.l+r ).B.g.G..+s c+                                  ",
"                                        ..a x+!.!.!.}.5+@.+ }.V.^.I ^.1+r r l+T A ~ 3 ..c+c+                                    ",
"                                            . ..c a.3 3 !.!.!.!.5+_+>.Y.4.T r T e 3 . . .                                       ",
"                                                  . . . . . . . . . . . . . . . . . . .                                         ",
"                                                          . . . . . . . . . . . . .                                             ",
"                                                                                                                                ",
"                                                                                                                                ",
"                                                                                                                                ",
"                                                                                                                                ",
"                                                                                                                                ",
"                                                                                                                                ",
"                                                                                                                                ",
"                                                                                                                                ",
"                                                                                                                                "};
