/* XPM */
static const char * gnome_dice_1_xpm[] = {
"64 64 256 2",
"  	c None",
". 	c #020202",
"+ 	c #57222B",
"@ 	c #62563A",
"# 	c #C6B882",
"$ 	c #A2423A",
"% 	c #726A4A",
"& 	c #2D3430",
"* 	c #943E34",
"= 	c #441C1A",
"- 	c #B2A676",
"; 	c #843A2D",
"> 	c #927E56",
", 	c #252C28",
"' 	c #331813",
") 	c #5E5032",
"! 	c #92574A",
"~ 	c #6E2A33",
"{ 	c #A29262",
"] 	c #261410",
"^ 	c #B06E62",
"/ 	c #AA564C",
"( 	c #1C1E1E",
"_ 	c #C17B6F",
": 	c #CA867A",
"< 	c #F1E3B9",
"[ 	c #210F0B",
"} 	c #563A32",
"| 	c #C26A5A",
"1 	c #602920",
"2 	c #BE8A82",
"3 	c #C35D4F",
"4 	c #4E322E",
"5 	c #EED6B0",
"6 	c #C68276",
"7 	c #1A0C09",
"8 	c #36423E",
"9 	c #B64A3E",
"0 	c #111616",
"a 	c #D2B2AA",
"b 	c #8A5042",
"c 	c #C58D82",
"d 	c #7B3A2D",
"e 	c #D16A58",
"f 	c #5E2E1E",
"g 	c #CA7A66",
"h 	c #924F40",
"i 	c #DED2AA",
"j 	c #AA6256",
"k 	c #A54E42",
"l 	c #130807",
"m 	c #44322E",
"n 	c #6F3328",
"o 	c #894A40",
"p 	c #6D4036",
"q 	c #92765E",
"r 	c #B2584C",
"s 	c #D1725F",
"t 	c #DA9E8F",
"u 	c #DA7A6A",
"v 	c #422A22",
"w 	c #CA8E86",
"x 	c #8C463C",
"y 	c #6A2A32",
"z 	c #3C2E26",
"A 	c #954A3D",
"B 	c #AC4E43",
"C 	c #3C3E38",
"D 	c #DEB4AE",
"E 	c #D6826F",
"F 	c #58302C",
"G 	c #7B352B",
"H 	c #723F38",
"I 	c #8C5E50",
"J 	c #0C1010",
"K 	c #C2B68E",
"L 	c #2A2620",
"M 	c #692F22",
"N 	c #B67A70",
"O 	c #C67664",
"P 	c #D2AE86",
"Q 	c #BE594C",
"R 	c #D29A92",
"S 	c #0E0605",
"T 	c #5F262C",
"U 	c #3E321E",
"V 	c #EABA9E",
"W 	c #4F201A",
"X 	c #9E453B",
"Y 	c #572620",
"Z 	c #C67E76",
"` 	c #4A3F36",
" .	c #AA493E",
"..	c #8A3A31",
"+.	c #DA826E",
"@.	c #C9ABA5",
"#.	c #D1958D",
"$.	c #662632",
"%.	c #3A2620",
"&.	c #A3564D",
"*.	c #AE5E4C",
"=.	c #DB7E66",
"-.	c #373A36",
";.	c #AE624E",
">.	c #D67260",
",.	c #DA8671",
"'.	c #924239",
").	c #090A0A",
"!.	c #EABEA2",
"~.	c #6E3233",
"{.	c #763E33",
"].	c #D2C2BC",
"^.	c #D16656",
"/.	c #C6725F",
"(.	c #62524A",
"_.	c #6A2E26",
":.	c #C6BA96",
"<.	c #D28D82",
"[.	c #C99F97",
"}.	c #44362A",
"|.	c #0A0603",
"1.	c #C46352",
"2.	c #C69A8C",
"3.	c #AA6D61",
"4.	c #D67E69",
"5.	c #D2A296",
"6.	c #DE8674",
"7.	c #834237",
"8.	c #3E1A15",
"9.	c #5E2A2B",
"0.	c #69322D",
"a.	c #B24E43",
"b.	c #BC705F",
"c.	c #4A2626",
"d.	c #BE6555",
"e.	c #763235",
"f.	c #DFC7C3",
"g.	c #EAD6D6",
"h.	c #33322D",
"i.	c #DA8272",
"j.	c #62382C",
"k.	c #4A2D27",
"l.	c #726440",
"m.	c #984236",
"n.	c #592629",
"o.	c #B7564A",
"p.	c #E6D2CE",
"q.	c #9E4A3F",
"r.	c #A4463B",
"s.	c #44261E",
"t.	c #464239",
"u.	c #8C3E35",
"v.	c #985046",
"w.	c #E2AEA6",
"x.	c #CE7A62",
"y.	c #4A1E26",
"z.	c #524A2E",
"A.	c #2A1E16",
"B.	c #AA9662",
"C.	c #DA7E6A",
"D.	c #DB8A75",
"E.	c #9B5E56",
"F.	c #6E2E2A",
"G.	c #A66252",
"H.	c #BEB2AE",
"I.	c #2D2D28",
"J.	c #D1ACA7",
"K.	c #AC5252",
"L.	c #D8766A",
"M.	c #1A1616",
"N.	c #424A44",
"O.	c #724A3A",
"P.	c #CE867E",
"Q.	c #CE7E70",
"R.	c #D67A6B",
"S.	c #BA847C",
"T.	c #7E463A",
"U.	c #97463B",
"V.	c #BE9A6E",
"W.	c #833C37",
"X.	c #E1BFB9",
"Y.	c #DE8272",
"Z.	c #443C26",
"`.	c #592A2A",
" +	c #7C3E34",
".+	c #662E2D",
"++	c #7B3536",
"@+	c #BC766C",
"#+	c #D77663",
"$+	c #DA7E6E",
"%+	c #6E665A",
"&+	c #6A2E30",
"*+	c #A45245",
"=+	c #D17662",
"-+	c #D67E6E",
";+	c #612E29",
">+	c #A44A3F",
",+	c #341E1A",
"'+	c #1F2523",
")+	c #B65145",
"!+	c #D16E5C",
"~+	c #763329",
"{+	c #A6766A",
"]+	c #762E36",
"^+	c #3A3630",
"/+	c #522B27",
"(+	c #C96B5A",
"_+	c #B95A4C",
":+	c #8D4237",
"<+	c #DA8676",
"[+	c #AC5245",
"}+	c #7B3A37",
"|+	c #61322C",
"1+	c #3E3A33",
"2+	c #1E1616",
"3+	c #71362F",
"4+	c #D67A65",
"5+	c #B66355",
"6+	c #AA5B4E",
"7+	c #343632",
"8+	c #060303",
"9+	c #CA6556",
"0+	c #622A2C",
"a+	c #BE5E52",
"b+	c #662A2F",
"c+	c #443D35",
"d+	c #9E4E41",
"e+	c #CAA6A2",
"f+	c #6E2E32",
"g+	c #99574B",
"h+	c #3F433E",
"i+	c #503F35",
"j+	c #AE4A3E",
"k+	c #D68C80",
"l+	c #160E0E",
"m+	c #763633",
"n+	c #9A4A41",
"o+	c #BB5248",
"p+	c #522226",
"q+	c #722E35",
"r+	c #3E1F1B",
"s+	c #7D4239",
"t+	c #2E1412",
"u+	c #D1B9B5",
"v+	c #592A22",
"w+	c #D7ACA6",
"x+	c #C9B7B3",
"y+	c #A65E52",
"z+	c #522622",
"A+	c #B45E4F",
"B+	c #68382F",
"C+	c #B25246",
"D+	c #602E32",
"E+	c #723232",
"F+	c #92463C",
"G+	c #B2766A",
"                                                                                                                                ",
"                                                                                                                                ",
"                                                                                                                                ",
"                                                                                                                                ",
"                                                                                                                                ",
"                                                                                                                                ",
"                                                                                                                                ",
"                                                  . . . . . . . . . . .                                                         ",
"                                            . . ).A.o h o h v.o s+ +{.;+r+t+7 .                                                 ",
"                                      . . M.2+p h *.5+b.b.@+@+b.b.5+&.&.*+d+q.'.z+t+.                                           ",
"                                  . ] ' H h g+| #+u +.D.6.+.+.E ,.+.#+s (+a+Q C+>+* 1 l .                                       ",
"                                l ' s+*+A+d.(+s E +.+.+.+.u 4.C.R.C.E +.4.#+(+1.Q [+U.u.8.|..                                   ",
"                              ).(.! d+A+| O u =.,.+.=.+.+.=.R.u L.u 4+$++.+.4+=+!+a+r r...; 3+. .                               ",
"                            |.%+! &._+(+4.=.+.+.+.+.+.+.+.-+u 4.4.R.i.,.D.,.+.+.4+=+9+r C+B n+d 0..                             ",
"                          . t.E.6+A+!+#++.E +.C.C.4.E E C.4.R.-+i.E ,.D.D.D.,.,.E ,.4.e Q _+a+*+d d S                           ",
"                        . d {+G+d.(+4.+.4.-+E ,.E <++.C.R.-+E E E E E ,.,.,.D.E +.E E 4.!+Q _+5+&. +d t+                        ",
"                      . /+h N @+(+R.,.E $++.E i.-+E -+-+R.R.R.R.R.-+Q.-+-+$++.E E 4.E ,.+.e o+_+5+v.A W.7                       ",
"                      . A ^ c b.=+,.4.4.E $+Y.E -+R.-+R.-+R.L.L.L.R.$+E -+R.C.=.+.+.4.,.+.>.3 B r 6+o h s+|.                    ",
"                    . I b 2 w /.4+E C.C.+.i.i.i.-+u C.R.$+-+=+=+L.R.R.$+$+L.L.u C.+.4.E =.4+e r k 6+v.o 7.s..                   ",
"                    l+h 3.5.6 (+#+4.4.E ,.,.i.R.u R.R.$+O 3.V.P t -+i.E u L.L.L.$+4.C.C.4.E 4+o.B &.E.h o z+).                  ",
"                  . %.v.2 w+/.!+L.-+$+<+<+$+-+R.R.-+-+=+O.l.{ # < 5 <+E C.u #+u u $+-+-+4.E +.(+[+A g+n+n+.+7                   ",
"                  S B+E.[.w.| s 4+4.,.,.,.E L.-+$+-+$+y+}.) B.# 5 < V u u R.L.u Y.i.,.+.4.4.E =+*.m.v.x u.F.t+.                 ",
"                . [ x 3.[.t (+s R.4.,.<+i.i.-+<+i.-+-+g+U ) > - i < !.-+u u u $+6.6.i.i.4.4.4.O ^ m.m.u. +~ s.|.                ",
"                . + E.2 [.#.!+s 4+-+,.D.<+<+<+D.D.$+4.Q.z Z.l.{ K :.2.-+-+R.u $+Y.Y.$+4.4+4.#+/.A+r.* u.H .+8.8+                ",
"                7 u.^ 2.@.R !+e #+4.+.+.,.D.D.<+E i.E E ! }.z.) % q _ E i.-+$+$+Y.6.$+-+4+x.s (+r $ ..~+4 |+t+.                 ",
"              . b+U.O w+x+5.!+e s =.+.,.i.i.i.E <+$+$+C.C./.! b G.Q.E D.,.i.$+Y.Y.Y.Y.u #+#+/.(+[+u.]+T }./+[ .                 ",
"              . _.d+_ J.].w+!+e =+4.+.D.,.,.i.i.<+E -+-+$+R.-+-+-++.i.<+i.i.i.Y.Y.C.=.u u 4+x.d. ..._.= z s.7 .                 ",
"              . v+*+Z J.].X.Q.^.>.E +.+.,.<+<+E E i.i.i.i.$+R.u $+E ,.<+E i.i.<+Y.u u =.=.x.=+r m.; T = z A.[ .                 ",
"              S = &.: @.].X.R ^.!+x.4.C.+.+.,.i.-+E <+E E -+-+E i.E <+D.E E i.,.6.=.=.C.x./.| [+* ]+Y F 7+L ' .                 ",
"              S E+A+S.e+x+a X.k+^.#+#+4.4.i.<+i.i.<+i.<+i.i.i.i.i.$+E i.i.$+$+Y.Y.=.=.,.x.(+o.r...y c.` 7+I.%..                 ",
"              l m+A+6 e+].H.].V Z e >.4+4+C.,.6.6.<+6.<+<+i.i.i.i.$+$+$+i.E <+$+Y.6.6.,.| 1. . .; 1 F t.-.I.'+).                ",
"              [ 7.5+b.2.f.].u+p.D =+!+#+4+4+C.+.,.,.+.,.<+<+i.i.i.$+-+E -+,.i.=.=.6.,.=+d.B j+* G k.Z.t.& h.'+.                 ",
"              [ U.A+b.c @.u+u+p.g.X.k+s >.4+4.C.C.+.i.,.i.E <+<+<+<+i.$+L.u $++.,.E =+3 k B r.G v+z c+1+7+h.0 .                 ",
"              t+'.*+A+3.N 2.w+J.f.f.X.w+<.E #+>.#+4+C.C.4.E ,.D.D.,.+.C.u 4++.+.4+>.3 C+ .>+m.~+s.1+c+-.7+I.J                   ",
"              t+U.U.U.x A / o.*+*.G+#.w+w+w+#.Q.9+9+e s #+R.4.E 4.4.+.C.=.=.4+>.9+_+C+a.B / A |+z c+c+C -.7+J                   ",
"              ' U.* U.U. .k k >+k [+&.5+_ 6 <.<.b._+Q Q 1.9+!+s s s s s e 1._+)+)+)+a.)+)+K.F+k.^+C C -.-.I..                   ",
"              ] ; X >+q.>+A F+U.U.U.x x d+k k / / [+)+)+o._+Q o.3 9+3 _+o.o+o.C+o+o+o.o.r >+s+z -.t.C -.7+'+.                   ",
"              . ~+u.X U.:+u.7.++E+E+++}+++}+W.:+>+*+*+[+k B >+>+B B a.B j+ .a.9 o+o+)+)+/ n+B+7+c+C 8 C -..                     ",
"              . 1 u.7.U.}+e.0.n.T ~ q+m+++E+f+0+0+3+W.n+q.n+A :+m.B j+j+j+9 >+a.r / / a.B x } C t.C h+C 7+.                     ",
"                [ ; f+W.W.~.&+m+e.f+q+E+E+f+f+f+]+q+E+f+3+; ; * F+$ * r.9 r.r.X >+C+K.B  .s+` 1+t.h+N.-.'+.                     ",
"                |.d 0.3+e.E+e.E+f+q+$.y y f+~ ~ ~ ]+f+f+++e.E+F.~+:+U.X m.$ r.$ $  .j+a.>+p c+-.C h+h+^+.                       ",
"                . d .+B+~.E+e.q+]+q+q+b+0+~ $.~ $.~ ~ q+0..+E+++e.F.n ; q.q.m.r.j+>+ .>+x i+t.C & C ^+, .                       ",
"                  [ G z+B+E+f+~.E+q+&+e.;+`.y ]+~ ~ $.y .+;+.+0.;+~+F.0.d U.n+u.j+r.$ X 7.i+i+-.7+-.7+J                         ",
"                  . :+f ;+B+~.&+~ &+y &+q+b+T y ~ T + + $.b+;+0+F.0._.T T 3+x A u.r.q.U.H i+-.& & -.& .                         ",
"                    l W.1 d .+0.b+b+0+f+.+&+f+&+y y + + + $.y b+b+D+.+$.T + E+x s+* j+X p } & I.N.C (                           ",
"                      ' d 3+;+.+;+`..+;+&+&+0.y y b+y + T 0+9.b+0+~ y b+$.$.T }+x * r.'.B+C , & N.& .                           ",
"                        S n 1 z+f 9.n..+0.&+0..+b+0+.+y T n.+ + T T y y ~ y $..+{.W.:+u.j.1+, -.& (                             ",
"                          . 1 1 Y 1 F.F.0+.+.+0..+T T 0+T + p+p+p+W + 9.~ y $.T 3+7. +d j.v , , , |.                            ",
"                            . 7 1 1 _.F._.0+;+0.0.&+0+9.n.n.p+y.y.p++ 0+f+&+0+T 0.d d G 1 /+L , M.                              ",
"                                . r+T 1 T 1 ;+0.0.D+D+`.9.n.n.p+p+p+n.T ~.D+n.`.3+H {.G `.k.'+0                                 ",
"                                    S W v+Y v+v+v+0+`.`.D+D+`.9.`.z+`.D+`./+F F p p 0.z+] l 8+                                  ",
"                                        S 7 /+W W p+Y Y n.n.n.z+`.c.`.D+|+D+|+B+ +G 8.|.|.8+                                    ",
"                                            8+S z %.8.= y.W p+W T b+&+~.3+B+|+B+M 8.8+. .                                       ",
"                                                  . . . . . . . . . . . . . . . . . . .                                         ",
"                                                          . . . . . . . . . . . . .                                             ",
"                                                                                                                                ",
"                                                                                                                                ",
"                                                                                                                                ",
"                                                                                                                                ",
"                                                                                                                                ",
"                                                                                                                                ",
"                                                                                                                                ",
"                                                                                                                                ",
"                                                                                                                                "};
