/* XPM */
static char * gnome_dice_none_xpm[] = {
"64 64 256 2",
"  	c None",
". 	c #020204",
"+ 	c #52725C",
"@ 	c #AEAE7C",
"# 	c #0C3A38",
"$ 	c #9B741A",
"% 	c #5C3D06",
"& 	c #9A8E5C",
"* 	c #5A5624",
"= 	c #C0903D",
"- 	c #02201F",
"; 	c #85590C",
"> 	c #AACABC",
", 	c #B87B0D",
"' 	c #32564C",
") 	c #C1A164",
"! 	c #312105",
"~ 	c #D1AD64",
"{ 	c #344024",
"] 	c #A1834A",
"^ 	c #D9BC7F",
"/ 	c #5D4B1D",
"( 	c #846818",
"_ 	c #7E8A5C",
": 	c #364A2C",
"< 	c #646644",
"[ 	c #A59F67",
"} 	c #D19E42",
"| 	c #9A6710",
"1 	c #2F2F18",
"2 	c #714C0D",
"3 	c #78784C",
"4 	c #715621",
"5 	c #D09123",
"6 	c #023233",
"7 	c #D5B373",
"8 	c #AC833A",
"9 	c #AB730D",
"0 	c #B99047",
"a 	c #493A14",
"b 	c #03140E",
"c 	c #B78937",
"d 	c #84683C",
"e 	c #76825C",
"f 	c #6E6224",
"g 	c #E2BD7C",
"h 	c #473007",
"i 	c #484620",
"j 	c #C5963E",
"k 	c #B49840",
"l 	c #D6C6A4",
"m 	c #9D7A3A",
"n 	c #5D430C",
"o 	c #674D1E",
"p 	c #EBD3AA",
"q 	c #2A1E08",
"r 	c #BEA070",
"s 	c #8C7238",
"t 	c #AF8A44",
"u 	c #224E3C",
"v 	c #845F18",
"w 	c #DBAD5C",
"x 	c #D1A657",
"y 	c #7E5810",
"z 	c #DDC28D",
"A 	c #213A27",
"B 	c #1D1507",
"C 	c #032929",
"D 	c #8E6928",
"E 	c #7C520C",
"F 	c #12322C",
"G 	c #E5C792",
"H 	c #684508",
"I 	c #947A40",
"J 	c #90600C",
"K 	c #70582E",
"L 	c #DEB369",
"M 	c #C9860F",
"N 	c #EACE9E",
"O 	c #4D4B24",
"P 	c #C4820C",
"Q 	c #46665C",
"R 	c #CFAD70",
"S 	c #DABE8E",
"T 	c #422E04",
"U 	c #735211",
"V 	c #533604",
"W 	c #554412",
"X 	c #C0984F",
"Y 	c #342609",
"Z 	c #9A8A54",
"` 	c #D0A04F",
" .	c #A46C0C",
"..	c #D1972E",
"+.	c #033634",
"@.	c #553A08",
"#.	c #B19959",
"$.	c #A47C3A",
"%.	c #020C0C",
"&.	c #C8902A",
"*.	c #BB8217",
"=.	c #46573F",
"-.	c #C6A65C",
";.	c #5E521C",
">.	c #B89E6C",
",.	c #AA864C",
"'.	c #B0915E",
").	c #906D35",
"!.	c #4D3613",
"~.	c #83622C",
"{.	c #EACA9A",
"].	c #A08558",
"^.	c #B2853A",
"/.	c #B17C19",
"(.	c #695224",
"_.	c #947232",
":.	c #B7985C",
"<.	c #53582A",
"[.	c #6D8054",
"}.	c #BEAA84",
"|.	c #A47614",
"1.	c #5A624C",
"2.	c #DEBB7B",
"3.	c #624B1C",
"4.	c #886E24",
"5.	c #8A965C",
"6.	c #9A6E24",
"7.	c #76581C",
"8.	c #16120C",
"9.	c #967E24",
"0.	c #726A34",
"a.	c #647848",
"b.	c #184440",
"c.	c #24422C",
"d.	c #9E9654",
"e.	c #949258",
"f.	c #1F2919",
"g.	c #908450",
"h.	c #566E4C",
"i.	c #675F27",
"j.	c #4A522C",
"k.	c #CAB280",
"l.	c #3F4F29",
"m.	c #291A04",
"n.	c #0F2119",
"o.	c #102A24",
"p.	c #130C04",
"q.	c #969E64",
"r.	c #AAA66C",
"s.	c #768654",
"t.	c #C1A674",
"u.	c #1E3628",
"v.	c #82763C",
"w.	c #7D5E28",
"x.	c #021A1C",
"y.	c #876E44",
"z.	c #183E31",
"A.	c #6A5A1C",
"B.	c #3F2A06",
"C.	c #B6B27C",
"D.	c #6A6E48",
"E.	c #4A5E34",
"F.	c #BF8821",
"G.	c #7A661C",
"H.	c #A39A57",
"I.	c #E4C286",
"J.	c #413614",
"K.	c #3F411F",
"L.	c #343618",
"M.	c #EEDAB4",
"N.	c #926E24",
"O.	c #525E34",
"P.	c #C89E52",
"Q.	c #C9AC70",
"R.	c #949874",
"S.	c #AA7E34",
"T.	c #AEA064",
"U.	c #827E4C",
"V.	c #C79A4D",
"W.	c #B89254",
"X.	c #5E7244",
"Y.	c #9C7634",
"Z.	c #7E6A3C",
"`.	c #888C58",
" +	c #0C312C",
".+	c #2A3D27",
"++	c #534B1F",
"@+	c #2C4630",
"#+	c #88672B",
"$+	c #D1B381",
"%+	c #4E3E24",
"&+	c #5D4618",
"*+	c #C68A20",
"=+	c #CF9A3E",
"-+	c #AA8A57",
";+	c #D8A64F",
">+	c #C9A66F",
",+	c #B6AA6C",
"'+	c #625724",
")+	c #D6AB5C",
"!+	c #A68241",
"~+	c #9E6A0C",
"{+	c #764E0C",
"]+	c #B2760C",
"^+	c #0A120C",
"/+	c #765E18",
"(+	c #CA973D",
"_+	c #8A6012",
":+	c #1A2E1C",
"<+	c #D6AE6C",
"[+	c #3A2707",
"}+	c #6A7850",
"|+	c #9A7C48",
"1+	c #8D7448",
"2+	c #7A5923",
"3+	c #DDB675",
"4+	c #3E3117",
"5+	c #54441E",
"6+	c #533E17",
"7+	c #95763F",
"8+	c #9A9A6C",
"9+	c #867A54",
"0+	c #C6A060",
"a+	c #A27634",
"b+	c #A68E64",
"c+	c #0D362F",
"d+	c #A68A54",
"e+	c #947A4F",
"f+	c #6F5224",
"g+	c #B6822C",
"h+	c #123E34",
"i+	c #0A221C",
"j+	c #BE7E0D",
"k+	c #D6A143",
"l+	c #363214",
"m+	c #4E3C13",
"n+	c #8A6A34",
"o+	c #4E3204",
"p+	c #4E441C",
"q+	c #624204",
"r+	c #C6A26C",
"s+	c #2A5244",
"t+	c #221604",
"u+	c #0A2624",
"v+	c #96620C",
"w+	c #765A2C",
"x+	c #CE8A14",
"y+	c #D6A24C",
"z+	c #D69A34",
"A+	c #4E563C",
"B+	c #96824C",
"C+	c #162214",
"D+	c #16261C",
"E+	c #D6B67C",
"F+	c #0A0604",
"G+	c #8A5A0C",
"                                                                                                                                ",
"                                                                                                                                ",
"                                                                                                                                ",
"                                                                                                                                ",
"                                                                                                                                ",
"                                                        6 6 6                                                                   ",
"                                                    6 6 6 6 +.6                                                                 ",
"                                                6 6 6 +.h+' Q 6 6                                                               ",
"                                              6 6 6 u U.[ R.+ 6 6                                                               ",
"                                              6 6 6 k ,+r._ s+6 6                                                               ",
"                                              6 6 6 9.C.r.[.b 6                                                                 ",
"                                                6 6 E.@ q.a.^+6                                                                 ",
"                                                  6 b.e.5.}+^+C                                                                 ",
"                                                    6 X.`.a.b                                                                   ",
"                                  * '+l.l.: : <.<.N.z.h.s.[.^+        # 6 6 6 6 6                                               ",
"                            b.=.: j.G.4.$ |.$ $ i.f }+R.[.[.^+3.O  +c+c+c+c+ + +F  +6 6 6                                       ",
"                        +.# =.v.y+w g )+k H.H.d.e.[ #.[ e `.'+A+1.=.D+5+w+~.D ~+_+w.O .+ +6                                     ",
"                      6 b.D.;+)+2.I.I.g )+&.F.n+I ] T.8+8+3 9+< j.A+D.#.} 5 M ( '+A./+v ++{  +6                                 ",
"                  6 6 b.g.;+L G N {.N g 8 6.w.4.Z T.& H.Q.B+g.3 0.<.* O ++N.&.5 (+/.v+| 7.v ;.A 6                               ",
"                6 6 6 < )+g N p p G t.#+4 3.&+y.:.-.E+;+} E K -.x ~ -.!+$.s s m c (+j $.U U (.4 u.6                             ",
"              6 6 6 <.;+3+I.N G I.>.e+K 6+3.>+~ 3+2.w 3+)+; @.>.^ z ^ ^ ^ k.X D ~.D c j ).o 2 (./ F C                           ",
"              6 6 l.;+3+G G I.N t.I 3.5+K w ~ L L N I.w ;+9 [+o >+I.G 2.3+7 -.0 2+2+D a+!+d &+{+/ o  +C                         ",
"            6 6 z.w G N N {.2.>.$.&+/ Z.x L 2.G I.N N )+5 P E Y {+x G G I.g <+) d+(.7.6.^.] s f+{+/ i 6                         ",
"          6 6 6 P.I.E+G {.g E+'.w+q 7+P.)+2.N N G g I.)+..P ~+! @.|.2.I.S z g )+m 7+&+3.a+c ].w.n n / A C                       ",
"          6 6 z.)+S t.I.I.L m w.q 4+$.;+w {.p {.^ E+7 w =+&., B.! v+` 2.g ^ 2.x 0 _._.!.5+8 t ] 7.@.5+i C                       ",
"        6 6 6 t 3+g {.g ;+} D T m.-+0 w I.G N N {.z 2.<+y+=+, G+t+{+/.L 2.I.2.L =+8 ).).Y D t e+n+!.&+++{ C                     ",
"        6 6 z.k+L {.I.2.w $.q+t+f+t V.;+N {.{.G N I.g =+;+(+]+; p.V 9 =+w G g 3+V.m ,.n+6+Y j e+] o V 5+p+C                     ",
"        6 6 i.)+g g I.w w U [+! t W.;+3+N p G g G {.L )+} (+| v+m.! | *+w G I.L L :.$.8 (.Y 5+] :.o @.J.o u.                    ",
"        6 6 *.3+g g I.3+X 2 m.[+] 0 L G p p N g I.G )+k+} } J ~+V p.E /.3+r b+w w X $.8 $.B.B '.'.4 H !.5+K.C                   ",
"      6 6 6 x+3+2.2.g ;+D v B T 0 0 L N M.l }.g g G )+} } } J ~+H p.{+~+w g Q.3+w V.-+8 Y.6+p.1+].e+2 V m+5+C                   ",
"      6 6 +.x+g I.g 2.5 w.6+o+o V.:.L N p N $+G G g k+} } 5 J ~+2 p.% J w 2.I.I.w P.:.t w.4 B (.].|+v V 3.5+C                   ",
"      6 6 +.x+3+g r w } w.@.q+S.} X w N N p {.G I.I.k+} k+5 v+~+{+m.! y ;+G g I.L r :.].2+~.B 8.y.m 2+@.o 5+C                   ",
"      6 6 c+5 g g ) V.5 D % q+$.;+W.L G N N {.N I.3+k+k+k+M | ~+{+T B y } I.I.g L ^ '.y._.n+4+F+y.!+4 @.n / o.                  ",
"      6 6 +.x+2.2.L k+5 _+V % $.)+= 2.{.G N I.N g w k+k+=+j+~+~+2 % p.E } g I.g L g -+d ,.).%+F+e+m w.T @.3.u+                  ",
"        6 6 x+L 3+L )+5 _+% H /.)+= L {.{.G G G w k+k+k+*+x+~+~+2 q+p.7.;+3+G g R $+e+1+#+w.5+. ].N.{+B.h 3.u+                  ",
"        6 6 x+L L w L } 6.E {+*.k+= L z G N Q.k.= } k+k+M P v+~+H % p.v k+L G g E+#.1+7+&+% 5+F+m J q+! @.&+u+                  ",
"        6 6 /.;+L k+;+5 g+2+E F.} =+L p G G t.>.0 = j } x+M E ~+q+@.p.w.)+w I.g 2.:.y.#+o h 4+p.v y H T 2 3.u+                  ",
"        6 6 c.k+w ;+)+5 5 J E j+z+k+w z G G >+$+;+=+=+5 , , ; v+H T m.Y.` w w g R |+n+(.o m+B.B 2 2 @.q+&+p+C                   ",
"          6 6 } ;+w w )+x+| {+]+x+k+y+I.{.N 7 E+P.= = M P j+v+J {+! q 8 )+L w 3+W.n+w.(.o !.B.q {+H B.H &+L.C                   ",
"          6 6 O.k+;+;+k+5 M 2 v+M k+k+2.G 2.S g (+F.^. ., P y G+{+! Y 8 w )+w Q.8 n+(.f+@.6+[+o+_+@.@.a m+f.-                   ",
"            6 6 j k+k+k+} P {+; P z+} 3+N G 2.2...j+F.]+ ., J E {+! h t ;+)+w ) ^.w+4 4 h 6+[+H ; h @.m+a o..                   ",
"            6 6 @+k+k+P.^., ~+o+9 M } ;+z z ~ <+5 P ..M P ~+G+E 2 B w.c k+w R W.).3.(.o T o+p.{+% B.m+!.1 b .                   ",
"              6 6 t k+V.;+g+]+B.~+j+..} 7 S z <+*+, /.9 ]+~+E 2 {+F+).^.k+L r+^.w+f+o 6+@.m.t+q+@.@.m+J.n.. . .                 ",
"              6 6 z.k+=+X = M {+o+ .*.x L 3+G 3+= j+j+~+~+; ; q+2 p._.c k+$+W.8 o o o V B.p.@.% q+a !.f.. . . .                 ",
"                6 6 i.;+k+} x+; o+J 9 *+` 7 R ^ &.j+j+j+ .E ; % 2 p.| = )+W.^.4 3.w.n q p.o+% % % % 1 - . . . .                 ",
"                  6 6 8 ;+k+x+M ; @., 9 &.` r+V.= , 9  .j+v+y q+V 8.~+M ..^.w.o ~.w.o+F+V @.J.H J.l+- . . . . .                 ",
"                    6 6 = k+5 x+x+2 {+, , ..;+V.= ,  .v+v+{+{+2 ! [+~+x+*+#+o ~.v q+. f.A W m+1 C+n.. . . . .                   ",
"                      6 6 $ 5 x+x+M H v+| /.z+5 =+j+]+9 ~+E H q+p.E ]+x+|.K.o 7.L.. :+.+K.1 i+x.%.. . . . .                     ",
"                        6 6 .+M x+x+M y ~+_+]+j+F.j+j+]+v+2 E % T ; P P C - %.b . b C - b %.. . . . . . . .                     ",
"                          b C 6 @+( x+P  . .v  .9 9 ~+v+y H H % H ~+/+- x.. . . . . . . . . . . . . . .                         ",
"                            . . - C c+c.j.;.7.4 v _+y {+W W W a n.C 6 6 %.. . . . . . . . . . . . . .                           ",
"                              . . . . b - C 6 6 6 6 6 6 6 6 6 C 6 6 C %.. . . . . . . . . . . . .                               ",
"                                  . . . . . . . . . b b x.x.x.x.. . . . . . . . . . . . . . .                                   ",
"                                      . . . . . . . . . . . . . . . . . . . . . . . . . .                                       ",
"                                              . . . . . . . . . . . . . . . . . .                                               ",
"                                                                                                                                ",
"                                                                                                                                ",
"                                                                                                                                ",
"                                                                                                                                ",
"                                                                                                                                ",
"                                                                                                                                ",
"                                                                                                                                ",
"                                                                                                                                ",
"                                                                                                                                "};
