/* XPM */
static char * gnome_dice_none_xpm[] = {
"64 64 98 2",
"  	c None",
". 	c #FC0809",
"+ 	c #F90708",
"@ 	c #FA0708",
"# 	c #C70607",
"$ 	c #F30708",
"% 	c #D60607",
"& 	c #E80708",
"* 	c #E50708",
"= 	c #D30607",
"- 	c #C40607",
"; 	c #E60708",
"> 	c #CE0607",
", 	c #C90607",
"' 	c #000000",
") 	c #BF0606",
"! 	c #910405",
"~ 	c #C10606",
"{ 	c #E00708",
"] 	c #CA0607",
"^ 	c #260101",
"/ 	c #450202",
"( 	c #240101",
"_ 	c #1E0001",
": 	c #E20708",
"< 	c #2B0101",
"[ 	c #E40708",
"} 	c #1D0001",
"| 	c #230101",
"1 	c #A90506",
"2 	c #DC0707",
"3 	c #5A0203",
"4 	c #790304",
"5 	c #720304",
"6 	c #EB0708",
"7 	c #700304",
"8 	c #AA0506",
"9 	c #5E0203",
"0 	c #CC0607",
"a 	c #D70607",
"b 	c #250101",
"c 	c #EE0708",
"d 	c #D50607",
"e 	c #F00708",
"f 	c #9B0405",
"g 	c #EF0708",
"h 	c #660303",
"i 	c #A70505",
"j 	c #A10505",
"k 	c #E30708",
"l 	c #6F0303",
"m 	c #D90607",
"n 	c #F60708",
"o 	c #F80708",
"p 	c #F40708",
"q 	c #340101",
"r 	c #7A0304",
"s 	c #E10708",
"t 	c #1C0001",
"u 	c #870404",
"v 	c #A60505",
"w 	c #940405",
"x 	c #690303",
"y 	c #F70708",
"z 	c #710304",
"A 	c #3A0102",
"B 	c #2C0101",
"C 	c #850404",
"D 	c #2F0101",
"E 	c #D00607",
"F 	c #F10708",
"G 	c #F20708",
"H 	c #BB0506",
"I 	c #A30505",
"J 	c #6E0303",
"K 	c #BA0506",
"L 	c #350101",
"M 	c #C80607",
"N 	c #B70506",
"O 	c #AD0506",
"P 	c #B00506",
"Q 	c #BD0606",
"R 	c #CF0607",
"S 	c #F50708",
"T 	c #E90708",
"U 	c #D10607",
"V 	c #A40505",
"W 	c #600303",
"X 	c #580203",
"Y 	c #8D0405",
"Z 	c #A80506",
"` 	c #C50607",
" .	c #C00606",
"..	c #420202",
"+.	c #570203",
"@.	c #B50506",
"#.	c #C20606",
"$.	c #A50505",
"                                                                                                                                ",
"                                                                                                                                ",
"                                                                                                                                ",
"                                                                                                                                ",
"                                                                                                                                ",
"                                                                                                                                ",
"                                                                                                                                ",
"                                                                                                                                ",
"                                                                                                                                ",
"                  . . . . . . .                 . . . . . .             . . . . . . .                 . . . . .                 ",
"                . . . . . . . . . . . . . . . . . . . . . . .         . . . . . . . . . . . . . . . . . . . . . .               ",
"                . . . . . . . . . . . . . . . . . . . . . . .         . . . . . . . . . . . . . . . . . . . . . .               ",
"                . . . . . . . . . . . . . . . . . . . . . . +         @ . . . . . . . . . . . . . . . . . . . . @               ",
"                  . .       # $ . . . . . . . .     % & * =               + @     - $ . . . . . . . . ;     > ,                 ",
"                              ' ) . . . . . . . !         ' ' ' ' ' '             ' ~ . . . . . . {             ' ' ' ' '       ",
"                            ' ' ' ] . . . . . . . ^ ' ' ' ' ' ' ' ' ' '         ' / . . . . . . * ( ' ' ' ' ' ' ' ' ' ' ' '     ",
"                            ' ' ' _ : . . . . . . : _ ' ' ' ' ' ' ' ' '         < [ . . . . . : } ' ' ' ' ' ' ' ' ' ' ' ' '     ",
"                            ' ' ' ' | . . . . . . . 1 ' ' ' ' ' ' ' ' '         2 . . . . . . 3 ' ' ' ' ' ' ' ' ' ' ' ' ' '     ",
"                                      4 . . . . . . . 5 ' ' ' ' ' '           6 . . . . . . 7 ' ' ' ' ' ' ' ' ' '               ",
"                                        8 . . . . . . . 9 '                   . . . . . . 0   ' ' ' ' ' ' ' '                   ",
"                                          a . . . . . . : b                 . . . . . . c     ' ' ' ' ' ' '                     ",
"                                            d . . . . . . 0 '             . . . . . . @     ' ' ' ' ' ' '                       ",
"                                              e . . . . . . f '         . . . . . . @     ' ' ' ' ' ' '                         ",
"                                                g . . . . . . h       + . . . . . .     ' ' ' ' ' ' '                           ",
"                                                i . . . . . . . ^   # . . . . . .       ' ' ' ' ' ' '                           ",
"                                                  j . . . . . . k l . . . . . .       ' ' ' ' ' ' '                             ",
"                                                    m . . . . . . . . . . . . n     ' ' ' ' ' ' '                               ",
"                                                      % . . . . . . . . . . o     ' ' ' ' ' ' '                                 ",
"                                                        e . . . . . . . . p     ' ' ' ' ' ' '                                   ",
"                                                          g . . . . . . . q   ' ' ' ' ' ' '                                     ",
"                                                          ~ . . . . . . r ' ' ' ' ' ' ' '                                       ",
"                                                          o . . . . . . s _ ' ' ' ' ' ' '                                       ",
"                                                        . . . . . . . . . { t ' ' ' ' '                                         ",
"                                                      . . . . . . . . . . . - ' ' ' '                                           ",
"                                                      . . . . . n u . . . . . 1 ' '                                             ",
"                                                    . . . . . .     v . . . . . w '                                             ",
"                                                  . . . . . .       ' , . . . . . x                                             ",
"                                                . . . . . . y     ' ' } { . . . . . z                                           ",
"                                              . . . . . . @     ' ' ' ' A . . . . . * B                                         ",
"                                            . . . . . . .       ' ' ' ' ' C . . . . . * D                                       ",
"                                            . . . . . .       ' ' ' ' ' '   E . . . . . E '                                     ",
"                                          . . . . . . F     ' ' ' ' ' '       G . . . . . H                                     ",
"                                        . . . . . . y     ' ' ' ' ' ' '         . . . . . . I                                   ",
"                                      . . . . . . @     ' ' ' ' ' ' '             . . . . . . J                                 ",
"                                    . . . . . . .     ' ' ' ' ' ' '               s . . . . . . 5                               ",
"                                    . . . . . .       ' ' ' ' ' '                   $ . . . . . * B                             ",
"                                  . . . . . . p     ' ' ' ' ' ' '                     . . . . . . * D                           ",
"                                . . . . . . @     ' ' ' ' ' ' '                         . . . . . . E '                         ",
"                              . . . . . . . k   ' ' ' ' ' ' '                           . . . . . . . K L                       ",
"                . . . . . . . . . . . . . . . M N O 8 8 P Q h             . . . . . . + . . . . . . . . . R k $ @ .             ",
"                . . . . . . . . . . . . . . . . . . . . . . S           . . . . . . . . . . . . . . . . . . . . . . .           ",
"                . . . . . . . . . . . . . . . . . . . . . . .           . . . . . . . . . . . . . . . . . . . . . . .           ",
"                . . . . . . . . . . . . . . . . . . . . . . .           . . . . . . . . . . . . . . . . . . . . . . T           ",
"                . . . . e * U V v       ' W X Y Z ` . . . m               @ . . . o * s  .i     ' ..+.7 Z 8 O @.#.$.            ",
"                            ' ' ' ' ' ' ' ' ' ' ' ' ' ' ' ' ' ' ' '                   ' ' ' ' ' ' ' ' ' ' ' ' ' ' ' ' ' ' '     ",
"                          ' ' ' ' ' ' ' ' ' ' ' ' ' ' ' ' ' ' ' ' ' ' '           ' ' ' ' ' ' ' ' ' ' ' ' ' ' ' ' ' ' ' ' ' '   ",
"                          ' ' ' ' ' ' ' ' ' ' ' ' ' ' ' ' ' ' ' ' ' ' '           ' ' ' ' ' ' ' ' ' ' ' ' ' ' ' ' ' ' ' ' ' ' ' ",
"                          ' ' ' ' ' ' ' ' ' ' ' ' ' ' ' ' ' ' ' ' ' ' '           ' ' ' ' ' ' ' ' ' ' ' ' ' ' ' ' ' ' ' ' ' '   ",
"                            ' ' ' ' ' '                 ' ' ' ' ' ' '                 ' ' ' ' ' '                 ' ' ' ' '     ",
"                                                                                                                                ",
"                                                                                                                                ",
"                                                                                                                                ",
"                                                                                                                                ",
"                                                                                                                                "};
